<svg xmlns="http://www.w3.org/2000/svg" xmlns:xlink="http://www.w3.org/1999/xlink" width="220" zoomAndPan="magnify" viewBox="0 0 165 82.499998" height="110" preserveAspectRatio="xMidYMid meet" version="1.0"><defs><clipPath id="14ac8ef460"><path d="M 0.496094 0 L 164.503906 0 L 164.503906 82.003906 L 0.496094 82.003906 Z M 0.496094 0 " clip-rule="nonzero"/></clipPath><clipPath id="fcb59cfdea"><path d="M 149 38 L 160.796875 38 L 160.796875 56.386719 L 149 56.386719 Z M 149 38 " clip-rule="nonzero"/></clipPath><clipPath id="26bb817374"><path d="M 4.246094 25.820312 L 43 25.820312 L 43 51 L 4.246094 51 Z M 4.246094 25.820312 " clip-rule="nonzero"/></clipPath></defs><g clip-path="url(#14ac8ef460)"><path fill="#ffffff" d="M 0.496094 0 L 164.503906 0 L 164.503906 171.460938 L 0.496094 171.460938 Z M 0.496094 0 " fill-opacity="1" fill-rule="nonzero"/><path fill="#ffffff" d="M 0.496094 0 L 164.503906 0 L 164.503906 82.003906 L 0.496094 82.003906 Z M 0.496094 0 " fill-opacity="1" fill-rule="nonzero"/><path fill="#ffffff" d="M 0.496094 0 L 164.503906 0 L 164.503906 82.003906 L 0.496094 82.003906 Z M 0.496094 0 " fill-opacity="1" fill-rule="nonzero"/></g><path fill="#3448c5" d="M 54.507812 35.4375 C 55.339844 35.4375 56.128906 35.625 56.875 35.996094 C 57.621094 36.367188 58.25 36.886719 58.753906 37.550781 C 58.792969 37.597656 58.84375 37.628906 58.90625 37.636719 C 58.964844 37.640625 59.019531 37.625 59.070312 37.585938 L 60.855469 36.148438 C 60.972656 36.054688 60.984375 35.953125 60.890625 35.835938 C 60.121094 34.828125 59.167969 34.042969 58.035156 33.480469 C 56.898438 32.921875 55.699219 32.640625 54.4375 32.640625 C 49.769531 32.640625 45.984375 36.691406 45.984375 41.671875 C 45.984375 46.652344 49.78125 50.703125 54.4375 50.703125 C 55.699219 50.707031 56.898438 50.425781 58.035156 49.867188 C 59.167969 49.304688 60.117188 48.519531 60.886719 47.511719 C 60.929688 47.464844 60.945312 47.410156 60.9375 47.347656 C 60.929688 47.285156 60.898438 47.234375 60.851562 47.195312 L 59.066406 45.777344 C 58.949219 45.683594 58.84375 45.695312 58.753906 45.8125 C 58.242188 46.472656 57.617188 46.988281 56.871094 47.355469 C 56.125 47.726562 55.339844 47.910156 54.507812 47.914062 C 51.320312 47.914062 48.824219 45.171875 48.824219 41.679688 C 48.824219 38.183594 51.320312 35.4375 54.507812 35.4375 Z M 54.507812 35.4375 " fill-opacity="1" fill-rule="nonzero"/><path fill="#3448c5" d="M 63.195312 32.128906 L 65.4375 32.128906 C 65.585938 32.128906 65.660156 32.203125 65.660156 32.351562 L 65.660156 50.246094 C 65.660156 50.394531 65.585938 50.46875 65.441406 50.46875 L 63.199219 50.46875 C 63.050781 50.46875 62.976562 50.394531 62.976562 50.246094 L 62.976562 32.351562 C 62.972656 32.203125 63.046875 32.128906 63.195312 32.128906 Z M 63.195312 32.128906 " fill-opacity="1" fill-rule="nonzero"/><path fill="#3448c5" d="M 73.300781 38.316406 C 70.328125 38.316406 67.320312 40.4375 67.320312 44.484375 C 67.320312 48.042969 69.890625 50.730469 73.300781 50.730469 C 76.707031 50.730469 79.300781 48.042969 79.300781 44.484375 C 79.300781 40.929688 76.722656 38.316406 73.300781 38.316406 Z M 76.597656 44.484375 C 76.597656 46.542969 75.175781 48.089844 73.300781 48.089844 C 71.421875 48.089844 70.03125 46.542969 70.03125 44.484375 C 70.03125 42.429688 71.4375 40.957031 73.300781 40.957031 C 75.160156 40.957031 76.597656 42.472656 76.597656 44.484375 Z M 76.597656 44.484375 " fill-opacity="1" fill-rule="nonzero"/><path fill="#3448c5" d="M 91.382812 38.578125 L 89.140625 38.578125 C 88.992188 38.574219 88.917969 38.648438 88.917969 38.796875 L 88.917969 44.785156 C 88.917969 47.125 87.316406 47.953125 85.941406 47.953125 C 84.726562 47.953125 83.503906 47.03125 83.503906 44.964844 L 83.503906 38.796875 C 83.503906 38.648438 83.429688 38.574219 83.28125 38.578125 L 81.039062 38.578125 C 80.894531 38.578125 80.820312 38.648438 80.820312 38.796875 L 80.820312 45.257812 C 80.820312 48.804688 82.414062 50.753906 85.308594 50.753906 C 86.363281 50.753906 88.066406 50.148438 88.703125 48.804688 L 88.917969 48.847656 L 88.917969 50.246094 C 88.917969 50.398438 88.992188 50.472656 89.140625 50.472656 L 91.382812 50.472656 C 91.53125 50.472656 91.605469 50.398438 91.605469 50.246094 L 91.605469 38.796875 C 91.605469 38.648438 91.53125 38.574219 91.382812 38.578125 Z M 91.382812 38.578125 " fill-opacity="1" fill-rule="nonzero"/><path fill="#3448c5" d="M 105.152344 32.128906 L 102.90625 32.128906 C 102.757812 32.128906 102.683594 32.203125 102.6875 32.351562 L 102.6875 40.351562 L 102.550781 40.128906 C 101.867188 39.023438 100.398438 38.308594 98.808594 38.308594 C 96.066406 38.308594 93.289062 40.4375 93.289062 44.503906 C 93.289062 48.046875 95.671875 50.71875 98.828125 50.71875 C 100.03125 50.71875 101.726562 50.234375 102.550781 48.875 L 102.6875 48.648438 L 102.6875 50.246094 C 102.683594 50.398438 102.757812 50.472656 102.90625 50.472656 L 105.152344 50.472656 C 105.300781 50.472656 105.371094 50.398438 105.371094 50.246094 L 105.371094 32.351562 C 105.371094 32.203125 105.300781 32.128906 105.152344 32.128906 Z M 102.644531 44.484375 C 102.660156 44.949219 102.585938 45.398438 102.425781 45.828125 C 102.261719 46.261719 102.023438 46.648438 101.707031 46.984375 C 101.390625 47.320312 101.019531 47.582031 100.601562 47.769531 C 100.179688 47.957031 99.738281 48.054688 99.28125 48.066406 C 97.445312 48.066406 96.007812 46.492188 96.007812 44.484375 C 96.007812 42.480469 97.445312 40.957031 99.28125 40.957031 C 99.734375 40.96875 100.171875 41.066406 100.585938 41.25 C 101 41.4375 101.367188 41.695312 101.679688 42.023438 C 101.996094 42.355469 102.234375 42.734375 102.402344 43.160156 C 102.566406 43.585938 102.644531 44.027344 102.636719 44.484375 Z M 102.644531 44.484375 " fill-opacity="1" fill-rule="nonzero"/><path fill="#3448c5" d="M 108.511719 38.578125 L 110.753906 38.578125 C 110.898438 38.578125 110.972656 38.648438 110.972656 38.796875 L 110.972656 50.246094 C 110.972656 50.394531 110.898438 50.46875 110.753906 50.46875 L 108.511719 50.46875 C 108.363281 50.46875 108.289062 50.394531 108.289062 50.246094 L 108.289062 38.796875 C 108.289062 38.648438 108.363281 38.578125 108.511719 38.578125 Z M 108.511719 38.578125 " fill-opacity="1" fill-rule="nonzero"/><path fill="#3448c5" d="M 109.640625 32.492188 C 109.40625 32.484375 109.179688 32.527344 108.960938 32.613281 C 108.742188 32.699219 108.550781 32.828125 108.382812 32.992188 C 108.214844 33.15625 108.085938 33.347656 107.996094 33.566406 C 107.90625 33.785156 107.859375 34.011719 107.859375 34.246094 C 107.863281 34.480469 107.910156 34.707031 108 34.925781 C 108.09375 35.140625 108.222656 35.332031 108.386719 35.496094 C 108.554688 35.660156 108.746094 35.789062 108.964844 35.875 C 109.179688 35.964844 109.40625 36.007812 109.640625 36.003906 C 109.875 36.007812 110.097656 35.964844 110.3125 35.878906 C 110.53125 35.789062 110.722656 35.664062 110.886719 35.496094 C 111.050781 35.332031 111.179688 35.140625 111.265625 34.921875 C 111.355469 34.707031 111.398438 34.480469 111.398438 34.246094 C 111.402344 34.011719 111.359375 33.785156 111.269531 33.566406 C 111.183594 33.347656 111.054688 33.15625 110.890625 32.992188 C 110.726562 32.828125 110.535156 32.699219 110.316406 32.613281 C 110.097656 32.527344 109.875 32.484375 109.640625 32.492188 Z M 109.640625 32.492188 " fill-opacity="1" fill-rule="nonzero"/><path fill="#3448c5" d="M 120.203125 38.316406 C 119.222656 38.316406 117.472656 38.851562 116.808594 40.269531 L 116.589844 40.226562 L 116.589844 38.796875 C 116.589844 38.648438 116.515625 38.574219 116.371094 38.578125 L 114.128906 38.578125 C 113.980469 38.578125 113.910156 38.648438 113.910156 38.796875 L 113.910156 50.246094 C 113.90625 50.398438 113.980469 50.472656 114.128906 50.472656 L 116.371094 50.472656 C 116.515625 50.472656 116.589844 50.398438 116.589844 50.246094 L 116.589844 44.257812 C 116.589844 41.941406 118.195312 41.109375 119.570312 41.109375 C 120.785156 41.109375 122.007812 42.023438 122.007812 44.070312 L 122.007812 50.246094 C 122.007812 50.398438 122.082031 50.472656 122.230469 50.472656 L 124.480469 50.472656 C 124.625 50.472656 124.699219 50.398438 124.699219 50.246094 L 124.699219 43.789062 C 124.695312 40.261719 123.097656 38.316406 120.203125 38.316406 Z M 120.203125 38.316406 " fill-opacity="1" fill-rule="nonzero"/><path fill="#3448c5" d="M 138.09375 38.578125 L 135.851562 38.578125 C 135.703125 38.574219 135.628906 38.648438 135.628906 38.796875 L 135.628906 40.375 L 135.492188 40.152344 C 134.808594 39.046875 133.339844 38.332031 131.738281 38.332031 C 128.996094 38.332031 126.21875 40.457031 126.21875 44.523438 C 126.21875 48.070312 128.601562 50.742188 131.761719 50.742188 C 132.960938 50.742188 134.65625 50.257812 135.480469 48.894531 L 135.617188 48.667969 L 135.617188 50.246094 C 135.617188 50.398438 135.691406 50.472656 135.839844 50.472656 L 138.078125 50.472656 C 138.226562 50.472656 138.300781 50.398438 138.300781 50.246094 L 138.300781 38.796875 C 138.300781 38.660156 138.230469 38.585938 138.09375 38.578125 Z M 135.585938 44.484375 C 135.601562 44.949219 135.527344 45.398438 135.363281 45.832031 C 135.203125 46.265625 134.960938 46.648438 134.644531 46.988281 C 134.328125 47.324219 133.957031 47.585938 133.535156 47.773438 C 133.113281 47.960938 132.671875 48.058594 132.210938 48.066406 C 130.378906 48.066406 128.945312 46.492188 128.945312 44.484375 C 128.945312 42.480469 130.378906 40.957031 132.210938 40.957031 C 132.667969 40.964844 133.105469 41.0625 133.523438 41.246094 C 133.9375 41.433594 134.304688 41.691406 134.621094 42.019531 C 134.9375 42.351562 135.179688 42.730469 135.34375 43.15625 C 135.511719 43.585938 135.589844 44.027344 135.582031 44.484375 Z M 135.585938 44.484375 " fill-opacity="1" fill-rule="nonzero"/><path fill="#3448c5" d="M 148.320312 38.617188 C 147.804688 38.40625 147.269531 38.300781 146.710938 38.300781 C 145.222656 38.300781 144.136719 39.199219 143.582031 40.902344 L 143.378906 40.875 L 143.378906 38.796875 C 143.378906 38.648438 143.304688 38.574219 143.160156 38.578125 L 140.917969 38.578125 C 140.769531 38.574219 140.695312 38.648438 140.695312 38.796875 L 140.695312 50.246094 C 140.695312 50.398438 140.769531 50.472656 140.917969 50.472656 L 143.183594 50.472656 C 143.332031 50.472656 143.40625 50.398438 143.402344 50.246094 L 143.402344 46.339844 C 143.402344 41.675781 145.253906 40.980469 146.359375 40.980469 C 146.828125 40.984375 147.28125 41.078125 147.714844 41.265625 C 147.777344 41.296875 147.839844 41.296875 147.90625 41.265625 C 147.964844 41.234375 148.003906 41.183594 148.019531 41.113281 L 148.460938 38.871094 C 148.488281 38.746094 148.441406 38.664062 148.320312 38.617188 Z M 148.320312 38.617188 " fill-opacity="1" fill-rule="nonzero"/><g clip-path="url(#fcb59cfdea)"><path fill="#3448c5" d="M 160.761719 38.675781 C 160.71875 38.609375 160.65625 38.574219 160.578125 38.578125 L 158.164062 38.578125 C 158.0625 38.578125 157.992188 38.625 157.957031 38.71875 L 155.035156 46.339844 L 152.085938 38.71875 C 152.046875 38.625 151.976562 38.578125 151.878906 38.578125 L 149.417969 38.578125 C 149.339844 38.578125 149.277344 38.609375 149.234375 38.675781 C 149.191406 38.738281 149.183594 38.808594 149.214844 38.882812 L 153.597656 49.71875 L 151.175781 56.050781 C 151.144531 56.125 151.148438 56.195312 151.195312 56.265625 C 151.238281 56.332031 151.300781 56.367188 151.382812 56.363281 L 153.730469 56.363281 C 153.832031 56.367188 153.898438 56.316406 153.933594 56.222656 L 160.78125 38.890625 C 160.8125 38.8125 160.808594 38.742188 160.761719 38.675781 Z M 160.761719 38.675781 " fill-opacity="1" fill-rule="nonzero"/></g><g clip-path="url(#26bb817374)"><path fill="#3448c5" d="M 34.902344 34.710938 C 34.703125 34.078125 34.453125 33.460938 34.15625 32.867188 C 33.859375 32.269531 33.515625 31.703125 33.128906 31.160156 C 32.742188 30.617188 32.316406 30.109375 31.851562 29.636719 C 31.386719 29.160156 30.886719 28.726562 30.355469 28.332031 C 29.820312 27.9375 29.257812 27.585938 28.671875 27.277344 C 28.082031 26.972656 27.476562 26.714844 26.847656 26.503906 C 26.21875 26.292969 25.578125 26.132812 24.921875 26.023438 C 24.269531 25.914062 23.613281 25.859375 22.949219 25.851562 C 21.820312 25.847656 20.714844 25.992188 19.625 26.289062 C 18.539062 26.585938 17.511719 27.023438 16.542969 27.605469 C 15.574219 28.183594 14.699219 28.882812 13.917969 29.703125 C 13.140625 30.523438 12.484375 31.429688 11.949219 32.429688 C 10.96875 32.609375 10.039062 32.933594 9.164062 33.410156 C 8.289062 33.882812 7.503906 34.484375 6.820312 35.210938 C 6.132812 35.9375 5.578125 36.753906 5.148438 37.660156 C 4.722656 38.566406 4.445312 39.515625 4.320312 40.507812 C 4.195312 41.503906 4.226562 42.492188 4.414062 43.476562 C 4.601562 44.460938 4.9375 45.394531 5.417969 46.269531 C 5.902344 47.144531 6.507812 47.925781 7.238281 48.605469 C 7.96875 49.289062 8.789062 49.839844 9.691406 50.257812 L 9.925781 50.363281 L 9.941406 50.363281 L 9.941406 47.683594 C 9.320312 47.300781 8.773438 46.832031 8.300781 46.277344 C 7.824219 45.71875 7.445312 45.105469 7.164062 44.429688 C 6.878906 43.753906 6.707031 43.050781 6.640625 42.320312 C 6.578125 41.589844 6.625 40.867188 6.785156 40.152344 C 6.945312 39.4375 7.210938 38.761719 7.582031 38.132812 C 7.949219 37.5 8.40625 36.941406 8.953125 36.453125 C 9.496094 35.964844 10.101562 35.574219 10.765625 35.273438 C 11.433594 34.976562 12.128906 34.789062 12.851562 34.710938 L 13.507812 34.644531 L 13.796875 34.046875 C 14.207031 33.175781 14.726562 32.378906 15.363281 31.65625 C 16 30.933594 16.722656 30.316406 17.53125 29.800781 C 18.34375 29.285156 19.207031 28.894531 20.128906 28.628906 C 21.050781 28.363281 21.992188 28.234375 22.949219 28.238281 C 23.515625 28.242188 24.078125 28.292969 24.636719 28.390625 C 25.195312 28.492188 25.742188 28.632812 26.277344 28.824219 C 26.8125 29.011719 27.328125 29.246094 27.824219 29.523438 C 28.320312 29.796875 28.789062 30.113281 29.234375 30.46875 C 29.679688 30.820312 30.09375 31.210938 30.472656 31.632812 C 30.851562 32.058594 31.195312 32.507812 31.5 32.992188 C 31.804688 33.472656 32.070312 33.972656 32.292969 34.5 C 32.515625 35.023438 32.695312 35.5625 32.828125 36.117188 L 33.054688 37.019531 L 33.992188 37.019531 C 34.367188 37.027344 34.738281 37.070312 35.105469 37.152344 C 35.472656 37.230469 35.828125 37.347656 36.171875 37.496094 C 36.515625 37.644531 36.84375 37.828125 37.152344 38.039062 C 37.460938 38.253906 37.746094 38.496094 38.011719 38.765625 C 38.273438 39.035156 38.507812 39.324219 38.714844 39.640625 C 38.921875 39.957031 39.097656 40.289062 39.238281 40.636719 C 39.382812 40.984375 39.488281 41.347656 39.5625 41.714844 C 39.636719 42.085938 39.671875 42.460938 39.675781 42.835938 C 39.675781 45.058594 38.402344 46.878906 36.230469 47.796875 L 36.230469 50.339844 L 36.386719 50.289062 C 39.875 49.136719 42.042969 46.28125 42.042969 42.835938 C 42.039062 42.34375 41.992188 41.851562 41.898438 41.367188 C 41.808594 40.882812 41.675781 40.40625 41.5 39.945312 C 41.324219 39.484375 41.109375 39.042969 40.855469 38.617188 C 40.601562 38.195312 40.308594 37.800781 39.984375 37.429688 C 39.660156 37.058594 39.304688 36.722656 38.917969 36.414062 C 38.53125 36.109375 38.121094 35.839844 37.6875 35.609375 C 37.253906 35.375 36.804688 35.183594 36.335938 35.035156 C 35.867188 34.882812 35.390625 34.777344 34.902344 34.710938 Z M 34.902344 34.710938 " fill-opacity="1" fill-rule="nonzero"/></g><path fill="#3448c5" d="M 18.359375 50.054688 L 18.878906 50.578125 C 18.910156 50.609375 18.917969 50.648438 18.898438 50.691406 C 18.882812 50.734375 18.851562 50.753906 18.804688 50.753906 L 14.703125 50.753906 C 14.457031 50.753906 14.214844 50.707031 13.984375 50.609375 C 13.757812 50.515625 13.554688 50.378906 13.375 50.199219 C 13.199219 50.023438 13.066406 49.820312 12.96875 49.585938 C 12.875 49.355469 12.828125 49.113281 12.828125 48.863281 L 12.828125 40.847656 C 12.828125 40.777344 12.792969 40.742188 12.722656 40.742188 L 11.847656 40.742188 C 11.800781 40.742188 11.769531 40.722656 11.75 40.679688 C 11.730469 40.636719 11.738281 40.597656 11.769531 40.566406 L 15.253906 37.0625 C 15.300781 37.011719 15.351562 37.011719 15.398438 37.0625 L 18.878906 40.566406 C 18.910156 40.597656 18.917969 40.636719 18.898438 40.675781 C 18.882812 40.71875 18.851562 40.742188 18.804688 40.742188 L 17.917969 40.742188 C 17.847656 40.742188 17.8125 40.777344 17.8125 40.847656 L 17.8125 48.726562 C 17.8125 49.246094 17.996094 49.6875 18.359375 50.054688 Z M 18.359375 50.054688 " fill-opacity="1" fill-rule="nonzero"/><path fill="#3448c5" d="M 26.050781 50.054688 L 26.574219 50.578125 C 26.605469 50.613281 26.613281 50.648438 26.59375 50.691406 C 26.578125 50.734375 26.546875 50.753906 26.5 50.753906 L 22.40625 50.753906 C 22.15625 50.753906 21.917969 50.707031 21.6875 50.609375 C 21.457031 50.515625 21.253906 50.378906 21.078125 50.199219 C 20.902344 50.023438 20.765625 49.820312 20.671875 49.585938 C 20.578125 49.355469 20.527344 49.113281 20.527344 48.863281 L 20.527344 42.871094 C 20.527344 42.804688 20.496094 42.765625 20.425781 42.765625 L 19.539062 42.765625 C 19.492188 42.765625 19.464844 42.742188 19.445312 42.699219 C 19.429688 42.660156 19.4375 42.621094 19.46875 42.589844 L 22.945312 39.089844 C 22.996094 39.039062 23.042969 39.039062 23.09375 39.089844 L 26.574219 42.582031 C 26.605469 42.617188 26.613281 42.652344 26.59375 42.695312 C 26.578125 42.738281 26.546875 42.757812 26.5 42.757812 L 25.609375 42.757812 C 25.542969 42.761719 25.507812 42.796875 25.507812 42.867188 L 25.507812 48.726562 C 25.507812 49.242188 25.6875 49.6875 26.050781 50.054688 Z M 26.050781 50.054688 " fill-opacity="1" fill-rule="nonzero"/><path fill="#3448c5" d="M 33.746094 50.054688 L 34.269531 50.578125 C 34.300781 50.609375 34.304688 50.648438 34.289062 50.691406 C 34.273438 50.734375 34.242188 50.753906 34.195312 50.753906 L 30.089844 50.753906 C 29.839844 50.753906 29.601562 50.707031 29.371094 50.609375 C 29.140625 50.515625 28.9375 50.378906 28.761719 50.199219 C 28.585938 50.023438 28.449219 49.820312 28.355469 49.585938 C 28.261719 49.355469 28.210938 49.113281 28.210938 48.863281 L 28.210938 44.882812 C 28.210938 44.8125 28.179688 44.78125 28.109375 44.78125 L 27.230469 44.78125 C 27.183594 44.78125 27.152344 44.757812 27.136719 44.714844 C 27.117188 44.671875 27.125 44.632812 27.160156 44.601562 L 30.640625 41.097656 C 30.691406 41.046875 30.738281 41.046875 30.785156 41.097656 L 34.269531 44.601562 C 34.300781 44.632812 34.308594 44.671875 34.292969 44.714844 C 34.273438 44.757812 34.242188 44.78125 34.195312 44.78125 L 33.304688 44.78125 C 33.234375 44.78125 33.199219 44.8125 33.199219 44.882812 L 33.199219 48.726562 C 33.203125 49.246094 33.382812 49.6875 33.746094 50.054688 Z M 33.746094 50.054688 " fill-opacity="1" fill-rule="nonzero"/></svg>