<svg xmlns="http://www.w3.org/2000/svg" xmlns:xlink="http://www.w3.org/1999/xlink" width="220" zoomAndPan="magnify" viewBox="0 0 165 82.499998" height="110" preserveAspectRatio="xMidYMid meet" version="1.0"><defs><clipPath id="96ef9cfacf"><path d="M 0.496094 0 L 164.503906 0 L 164.503906 82.003906 L 0.496094 82.003906 Z M 0.496094 0 " clip-rule="nonzero"/></clipPath><clipPath id="2aa0ccddf4"><path d="M 153 41 L 161.230469 41 L 161.230469 48 L 153 48 Z M 153 41 " clip-rule="nonzero"/></clipPath><clipPath id="8753dbd5d6"><path d="M 3.933594 31 L 50 31 L 50 51 L 3.933594 51 Z M 3.933594 31 " clip-rule="nonzero"/></clipPath><clipPath id="89307dd665"><path d="M 13 22.703125 L 32 22.703125 L 32 45 L 13 45 Z M 13 22.703125 " clip-rule="nonzero"/></clipPath><clipPath id="ddf457e35f"><path d="M 13 56 L 16 56 L 16 59.230469 L 13 59.230469 Z M 13 56 " clip-rule="nonzero"/></clipPath></defs><g clip-path="url(#96ef9cfacf)"><path fill="#ffffff" d="M 0.496094 0 L 164.503906 0 L 164.503906 89.457031 L 0.496094 89.457031 Z M 0.496094 0 " fill-opacity="1" fill-rule="nonzero"/><path fill="#ffffff" d="M 0.496094 0 L 164.503906 0 L 164.503906 82.003906 L 0.496094 82.003906 Z M 0.496094 0 " fill-opacity="1" fill-rule="nonzero"/><path fill="#ffffff" d="M 0.496094 0 L 164.503906 0 L 164.503906 82.003906 L 0.496094 82.003906 Z M 0.496094 0 " fill-opacity="1" fill-rule="nonzero"/></g><path fill="#21fa90" d="M 57.101562 47.832031 L 57.101562 39.433594 L 60.746094 39.433594 C 61.5 39.433594 62.152344 39.554688 62.695312 39.800781 C 63.238281 40.046875 63.660156 40.390625 63.957031 40.851562 C 64.253906 41.304688 64.40625 41.851562 64.40625 42.484375 C 64.40625 43.109375 64.253906 43.648438 63.957031 44.105469 C 63.660156 44.558594 63.238281 44.910156 62.695312 45.15625 C 62.148438 45.402344 61.5 45.523438 60.746094 45.523438 L 58.183594 45.523438 L 59.050781 44.648438 L 59.050781 47.832031 Z M 59.050781 44.855469 L 58.183594 43.929688 L 60.640625 43.929688 C 61.242188 43.929688 61.6875 43.800781 61.984375 43.546875 C 62.28125 43.292969 62.433594 42.933594 62.433594 42.480469 C 62.433594 42.015625 62.28125 41.652344 61.984375 41.398438 C 61.6875 41.144531 61.242188 41.015625 60.640625 41.015625 L 58.183594 41.015625 L 59.050781 40.089844 Z M 59.050781 44.855469 " fill-opacity="1" fill-rule="nonzero"/><path fill="#21fa90" d="M 65.78125 38.929688 L 67.660156 38.929688 L 67.660156 47.832031 L 65.78125 47.832031 Z M 65.78125 38.929688 " fill-opacity="1" fill-rule="nonzero"/><path fill="#21fa90" d="M 71.402344 47.929688 C 70.894531 47.929688 70.460938 47.839844 70.101562 47.667969 C 69.742188 47.5 69.460938 47.265625 69.269531 46.96875 C 69.078125 46.671875 68.980469 46.339844 68.980469 45.972656 C 68.980469 45.589844 69.078125 45.25 69.265625 44.964844 C 69.453125 44.675781 69.753906 44.453125 70.160156 44.285156 C 70.570312 44.121094 71.101562 44.039062 71.761719 44.039062 L 73.484375 44.039062 L 73.484375 45.128906 L 71.964844 45.128906 C 71.523438 45.128906 71.222656 45.203125 71.058594 45.347656 C 70.894531 45.492188 70.8125 45.671875 70.8125 45.890625 C 70.8125 46.132812 70.90625 46.320312 71.097656 46.460938 C 71.285156 46.601562 71.542969 46.667969 71.875 46.667969 C 72.1875 46.667969 72.46875 46.59375 72.71875 46.449219 C 72.964844 46.300781 73.148438 46.082031 73.261719 45.792969 L 73.550781 46.65625 C 73.414062 47.074219 73.164062 47.390625 72.804688 47.601562 C 72.433594 47.820312 71.96875 47.929688 71.402344 47.929688 Z M 73.375 47.832031 L 73.375 46.574219 L 73.253906 46.296875 L 73.253906 44.039062 C 73.253906 43.636719 73.132812 43.324219 72.886719 43.101562 C 72.640625 42.875 72.265625 42.761719 71.761719 42.761719 C 71.414062 42.761719 71.074219 42.816406 70.746094 42.925781 C 70.410156 43.035156 70.128906 43.179688 69.894531 43.363281 L 69.222656 42.054688 C 69.574219 41.808594 70 41.613281 70.5 41.480469 C 70.996094 41.339844 71.5 41.273438 72.015625 41.273438 C 73.003906 41.273438 73.769531 41.507812 74.316406 41.972656 C 74.859375 42.433594 75.136719 43.160156 75.136719 44.144531 L 75.136719 47.832031 Z M 73.375 47.832031 " fill-opacity="1" fill-rule="nonzero"/><path fill="#21fa90" d="M 76.058594 42.957031 L 76.058594 41.519531 L 80.550781 41.519531 L 80.550781 42.957031 Z M 79.476562 47.929688 C 78.714844 47.929688 78.121094 47.730469 77.695312 47.34375 C 77.269531 46.957031 77.054688 46.378906 77.054688 45.609375 L 77.054688 39.945312 L 78.933594 39.945312 L 78.933594 45.585938 C 78.933594 45.855469 79.003906 46.070312 79.148438 46.214844 C 79.296875 46.363281 79.492188 46.4375 79.738281 46.4375 C 80.035156 46.4375 80.285156 46.355469 80.496094 46.195312 L 81 47.515625 C 80.808594 47.652344 80.578125 47.753906 80.308594 47.820312 C 80.042969 47.890625 79.769531 47.929688 79.476562 47.929688 Z M 79.476562 47.929688 " fill-opacity="1" fill-rule="nonzero"/><path fill="#21fa90" d="M 81.292969 42.957031 L 81.292969 41.519531 L 85.785156 41.519531 L 85.785156 42.957031 Z M 82.292969 47.832031 L 82.292969 41.230469 C 82.292969 40.5 82.511719 39.921875 82.941406 39.480469 C 83.375 39.042969 83.992188 38.828125 84.792969 38.828125 C 85.066406 38.828125 85.328125 38.855469 85.585938 38.910156 C 85.835938 38.964844 86.050781 39.058594 86.226562 39.175781 L 85.734375 40.527344 C 85.628906 40.457031 85.511719 40.398438 85.386719 40.363281 C 85.257812 40.320312 85.125 40.304688 84.976562 40.304688 C 84.707031 40.304688 84.492188 40.382812 84.347656 40.535156 C 84.195312 40.691406 84.125 40.929688 84.125 41.238281 L 84.125 41.835938 L 84.175781 42.640625 L 84.175781 47.832031 Z M 82.292969 47.832031 " fill-opacity="1" fill-rule="nonzero"/><path fill="#21fa90" d="M 89.71875 47.929688 C 89.03125 47.929688 88.417969 47.78125 87.882812 47.496094 C 87.347656 47.207031 86.929688 46.8125 86.621094 46.308594 C 86.3125 45.808594 86.15625 45.238281 86.15625 44.601562 C 86.15625 43.957031 86.3125 43.378906 86.621094 42.878906 C 86.929688 42.378906 87.351562 41.988281 87.882812 41.703125 C 88.417969 41.421875 89.03125 41.277344 89.71875 41.277344 C 90.402344 41.277344 91.011719 41.421875 91.550781 41.703125 C 92.089844 41.988281 92.507812 42.378906 92.8125 42.875 C 93.117188 43.371094 93.269531 43.945312 93.269531 44.605469 C 93.269531 45.246094 93.117188 45.8125 92.8125 46.316406 C 92.507812 46.816406 92.085938 47.207031 91.550781 47.5 C 91.011719 47.78125 90.402344 47.929688 89.71875 47.929688 Z M 89.71875 46.390625 C 90.03125 46.390625 90.3125 46.320312 90.5625 46.171875 C 90.808594 46.027344 91.011719 45.824219 91.152344 45.554688 C 91.300781 45.289062 91.371094 44.96875 91.371094 44.601562 C 91.371094 44.226562 91.300781 43.90625 91.152344 43.644531 C 91.007812 43.378906 90.808594 43.175781 90.5625 43.03125 C 90.3125 42.882812 90.03125 42.8125 89.71875 42.8125 C 89.40625 42.8125 89.125 42.882812 88.875 43.03125 C 88.625 43.175781 88.425781 43.375 88.28125 43.644531 C 88.128906 43.90625 88.058594 44.226562 88.058594 44.601562 C 88.058594 44.96875 88.132812 45.289062 88.28125 45.554688 C 88.425781 45.824219 88.628906 46.03125 88.875 46.171875 C 89.125 46.320312 89.40625 46.390625 89.71875 46.390625 Z M 89.71875 46.390625 " fill-opacity="1" fill-rule="nonzero"/><path fill="#21fa90" d="M 94.523438 47.832031 L 94.523438 41.375 L 96.316406 41.375 L 96.316406 43.199219 L 96.066406 42.671875 C 96.257812 42.21875 96.566406 41.871094 96.996094 41.632812 C 97.421875 41.394531 97.933594 41.277344 98.546875 41.277344 L 98.546875 43.007812 C 98.464844 43 98.394531 42.996094 98.328125 42.992188 C 98.265625 42.988281 98.195312 42.988281 98.125 42.988281 C 97.609375 42.988281 97.195312 43.132812 96.878906 43.425781 C 96.558594 43.71875 96.402344 44.171875 96.402344 44.789062 L 96.402344 47.832031 Z M 94.523438 47.832031 " fill-opacity="1" fill-rule="nonzero"/><path fill="#21fa90" d="M 107.957031 41.277344 C 108.472656 41.277344 108.925781 41.378906 109.324219 41.582031 C 109.722656 41.789062 110.035156 42.101562 110.265625 42.519531 C 110.496094 42.941406 110.609375 43.480469 110.609375 44.132812 L 110.609375 47.832031 L 108.730469 47.832031 L 108.730469 44.421875 C 108.730469 43.902344 108.621094 43.515625 108.40625 43.273438 C 108.1875 43.027344 107.882812 42.902344 107.488281 42.902344 C 107.21875 42.902344 106.972656 42.964844 106.753906 43.089844 C 106.535156 43.214844 106.367188 43.398438 106.246094 43.648438 C 106.125 43.898438 106.066406 44.210938 106.066406 44.59375 L 106.066406 47.832031 L 104.191406 47.832031 L 104.191406 44.421875 C 104.191406 43.902344 104.085938 43.515625 103.871094 43.273438 C 103.660156 43.027344 103.359375 42.902344 102.964844 42.902344 C 102.695312 42.902344 102.445312 42.964844 102.230469 43.089844 C 102.011719 43.214844 101.84375 43.398438 101.722656 43.648438 C 101.601562 43.898438 101.542969 44.210938 101.542969 44.59375 L 101.542969 47.832031 L 99.667969 47.832031 L 99.667969 41.375 L 101.460938 41.375 L 101.460938 43.136719 L 101.121094 42.621094 C 101.347656 42.179688 101.664062 41.847656 102.078125 41.621094 C 102.492188 41.390625 102.964844 41.277344 103.492188 41.277344 C 104.085938 41.277344 104.605469 41.429688 105.050781 41.730469 C 105.5 42.03125 105.792969 42.488281 105.9375 43.105469 L 105.277344 42.925781 C 105.496094 42.421875 105.84375 42.019531 106.320312 41.726562 C 106.792969 41.425781 107.339844 41.277344 107.957031 41.277344 Z M 107.957031 41.277344 " fill-opacity="1" fill-rule="nonzero"/><path fill="#21fa90" d="M 114.289062 47.929688 C 113.78125 47.929688 113.347656 47.839844 112.988281 47.667969 C 112.628906 47.5 112.347656 47.265625 112.15625 46.96875 C 111.964844 46.671875 111.867188 46.339844 111.867188 45.972656 C 111.867188 45.589844 111.964844 45.25 112.152344 44.964844 C 112.339844 44.675781 112.640625 44.453125 113.046875 44.285156 C 113.457031 44.121094 113.988281 44.039062 114.648438 44.039062 L 116.371094 44.039062 L 116.371094 45.128906 L 114.851562 45.128906 C 114.410156 45.128906 114.109375 45.203125 113.945312 45.347656 C 113.78125 45.492188 113.699219 45.671875 113.699219 45.890625 C 113.699219 46.132812 113.792969 46.320312 113.984375 46.460938 C 114.171875 46.601562 114.429688 46.667969 114.761719 46.667969 C 115.074219 46.667969 115.355469 46.59375 115.605469 46.449219 C 115.851562 46.300781 116.035156 46.082031 116.148438 45.792969 L 116.4375 46.65625 C 116.300781 47.074219 116.050781 47.390625 115.691406 47.601562 C 115.320312 47.820312 114.855469 47.929688 114.289062 47.929688 Z M 116.261719 47.832031 L 116.261719 46.574219 L 116.140625 46.296875 L 116.140625 44.039062 C 116.140625 43.636719 116.019531 43.324219 115.773438 43.101562 C 115.527344 42.875 115.152344 42.761719 114.648438 42.761719 C 114.300781 42.761719 113.960938 42.816406 113.632812 42.925781 C 113.296875 43.035156 113.015625 43.179688 112.78125 43.363281 L 112.109375 42.054688 C 112.460938 41.808594 112.886719 41.613281 113.386719 41.480469 C 113.882812 41.339844 114.386719 41.273438 114.902344 41.273438 C 115.890625 41.273438 116.65625 41.507812 117.203125 41.972656 C 117.746094 42.433594 118.023438 43.160156 118.023438 44.144531 L 118.023438 47.832031 Z M 116.261719 47.832031 " fill-opacity="1" fill-rule="nonzero"/><path fill="#21fa90" d="M 118.945312 42.957031 L 118.945312 41.519531 L 123.4375 41.519531 L 123.4375 42.957031 Z M 122.363281 47.929688 C 121.601562 47.929688 121.007812 47.730469 120.582031 47.34375 C 120.152344 46.957031 119.941406 46.378906 119.941406 45.609375 L 119.941406 39.945312 L 121.816406 39.945312 L 121.816406 45.585938 C 121.816406 45.855469 121.890625 46.070312 122.035156 46.214844 C 122.183594 46.363281 122.378906 46.4375 122.625 46.4375 C 122.921875 46.4375 123.171875 46.355469 123.382812 46.195312 L 123.886719 47.515625 C 123.695312 47.652344 123.464844 47.753906 123.195312 47.820312 C 122.929688 47.890625 122.648438 47.929688 122.363281 47.929688 Z M 122.363281 47.929688 " fill-opacity="1" fill-rule="nonzero"/><path fill="#21fa90" d="M 125.890625 40.472656 C 125.542969 40.472656 125.261719 40.375 125.046875 40.175781 C 124.828125 39.972656 124.71875 39.726562 124.71875 39.433594 C 124.71875 39.136719 124.828125 38.890625 125.046875 38.691406 C 125.261719 38.492188 125.542969 38.390625 125.890625 38.390625 C 126.234375 38.390625 126.519531 38.484375 126.734375 38.671875 C 126.953125 38.859375 127.0625 39.101562 127.0625 39.398438 C 127.0625 39.710938 126.957031 39.96875 126.742188 40.175781 C 126.527344 40.371094 126.242188 40.472656 125.890625 40.472656 Z M 124.949219 47.832031 L 124.949219 41.375 L 126.828125 41.375 L 126.828125 47.832031 Z M 124.949219 47.832031 " fill-opacity="1" fill-rule="nonzero"/><path fill="#21fa90" d="M 131.703125 47.929688 C 131.003906 47.929688 130.382812 47.785156 129.835938 47.503906 C 129.289062 47.21875 128.863281 46.824219 128.554688 46.320312 C 128.246094 45.8125 128.089844 45.242188 128.089844 44.601562 C 128.089844 43.957031 128.246094 43.378906 128.554688 42.878906 C 128.863281 42.378906 129.289062 41.988281 129.835938 41.703125 C 130.382812 41.421875 131.003906 41.277344 131.703125 41.277344 C 132.382812 41.277344 132.976562 41.421875 133.484375 41.703125 C 133.988281 41.988281 134.363281 42.394531 134.605469 42.921875 L 133.148438 43.699219 C 132.980469 43.398438 132.769531 43.171875 132.519531 43.03125 C 132.265625 42.882812 131.992188 42.8125 131.695312 42.8125 C 131.371094 42.8125 131.082031 42.882812 130.828125 43.03125 C 130.574219 43.175781 130.367188 43.375 130.222656 43.644531 C 130.070312 43.90625 130 44.226562 130 44.601562 C 130 44.976562 130.074219 45.296875 130.222656 45.558594 C 130.367188 45.824219 130.574219 46.027344 130.828125 46.171875 C 131.082031 46.320312 131.371094 46.390625 131.695312 46.390625 C 131.992188 46.390625 132.265625 46.320312 132.519531 46.179688 C 132.769531 46.039062 132.980469 45.8125 133.148438 45.5 L 134.605469 46.292969 C 134.363281 46.816406 133.988281 47.214844 133.484375 47.5 C 132.976562 47.785156 132.382812 47.929688 131.703125 47.929688 Z M 131.703125 47.929688 " fill-opacity="1" fill-rule="nonzero"/><path fill="#21fa90" d="M 136.636719 47.929688 C 136.316406 47.929688 136.042969 47.820312 135.8125 47.597656 C 135.582031 47.378906 135.46875 47.097656 135.46875 46.753906 C 135.46875 46.410156 135.582031 46.132812 135.8125 45.917969 C 136.042969 45.707031 136.316406 45.601562 136.636719 45.601562 C 136.964844 45.601562 137.242188 45.707031 137.46875 45.917969 C 137.695312 46.132812 137.808594 46.410156 137.808594 46.753906 C 137.808594 47.097656 137.695312 47.378906 137.46875 47.597656 C 137.242188 47.816406 136.964844 47.929688 136.636719 47.929688 Z M 136.636719 47.929688 " fill-opacity="1" fill-rule="nonzero"/><path fill="#21fa90" d="M 141.777344 47.929688 C 141.167969 47.929688 140.621094 47.789062 140.132812 47.515625 C 139.644531 47.238281 139.253906 46.851562 138.96875 46.355469 C 138.683594 45.859375 138.542969 45.277344 138.542969 44.605469 C 138.542969 43.925781 138.683594 43.339844 138.96875 42.84375 C 139.253906 42.347656 139.644531 41.960938 140.132812 41.691406 C 140.621094 41.421875 141.171875 41.28125 141.777344 41.28125 C 142.324219 41.28125 142.804688 41.402344 143.214844 41.640625 C 143.625 41.882812 143.941406 42.246094 144.164062 42.734375 C 144.386719 43.222656 144.5 43.847656 144.5 44.605469 C 144.5 45.355469 144.390625 45.980469 144.175781 46.472656 C 143.957031 46.964844 143.648438 47.332031 143.242188 47.570312 C 142.832031 47.808594 142.347656 47.929688 141.777344 47.929688 Z M 142.101562 46.390625 C 142.40625 46.390625 142.683594 46.320312 142.933594 46.171875 C 143.179688 46.027344 143.378906 45.824219 143.527344 45.554688 C 143.671875 45.289062 143.75 44.96875 143.75 44.601562 C 143.75 44.226562 143.671875 43.90625 143.527344 43.644531 C 143.375 43.378906 143.179688 43.175781 142.933594 43.03125 C 142.683594 42.882812 142.40625 42.8125 142.101562 42.8125 C 141.789062 42.8125 141.507812 42.882812 141.257812 43.03125 C 141.003906 43.175781 140.808594 43.375 140.664062 43.644531 C 140.511719 43.90625 140.441406 44.226562 140.441406 44.601562 C 140.441406 44.96875 140.515625 45.289062 140.664062 45.554688 C 140.808594 45.824219 141.011719 46.03125 141.257812 46.171875 C 141.507812 46.320312 141.792969 46.390625 142.101562 46.390625 Z M 143.796875 47.832031 L 143.796875 46.511719 L 143.835938 44.589844 L 143.714844 42.679688 L 143.714844 38.921875 L 145.59375 38.921875 L 145.59375 47.832031 Z M 143.796875 47.832031 " fill-opacity="1" fill-rule="nonzero"/><path fill="#21fa90" d="M 150.539062 47.929688 C 149.800781 47.929688 149.152344 47.78125 148.59375 47.496094 C 148.039062 47.207031 147.605469 46.8125 147.300781 46.308594 C 146.996094 45.808594 146.847656 45.238281 146.847656 44.601562 C 146.847656 43.957031 146.996094 43.378906 147.296875 42.878906 C 147.597656 42.378906 148.007812 41.988281 148.53125 41.703125 C 149.054688 41.421875 149.644531 41.277344 150.300781 41.277344 C 150.9375 41.277344 151.503906 41.414062 152.015625 41.679688 C 152.523438 41.945312 152.925781 42.328125 153.222656 42.828125 C 153.519531 43.328125 153.671875 43.925781 153.671875 44.621094 C 153.671875 44.691406 153.667969 44.777344 153.65625 44.867188 C 153.648438 44.960938 153.640625 45.046875 153.632812 45.125 L 148.371094 45.125 L 148.371094 44.039062 L 152.644531 44.039062 L 151.921875 44.363281 C 151.921875 44.027344 151.855469 43.734375 151.71875 43.488281 C 151.578125 43.242188 151.390625 43.046875 151.152344 42.90625 C 150.910156 42.761719 150.632812 42.695312 150.308594 42.695312 C 149.988281 42.695312 149.707031 42.765625 149.460938 42.90625 C 149.214844 43.046875 149.023438 43.242188 148.886719 43.492188 C 148.75 43.742188 148.683594 44.042969 148.683594 44.382812 L 148.683594 44.671875 C 148.683594 45.023438 148.761719 45.335938 148.917969 45.601562 C 149.070312 45.867188 149.292969 46.074219 149.578125 46.214844 C 149.863281 46.355469 150.195312 46.421875 150.582031 46.421875 C 150.921875 46.421875 151.230469 46.371094 151.488281 46.269531 C 151.746094 46.164062 151.984375 46.011719 152.203125 45.800781 L 153.203125 46.882812 C 152.90625 47.21875 152.535156 47.472656 152.082031 47.65625 C 151.644531 47.835938 151.125 47.929688 150.539062 47.929688 Z M 150.539062 47.929688 " fill-opacity="1" fill-rule="nonzero"/><g clip-path="url(#2aa0ccddf4)"><path fill="#21fa90" d="M 156.558594 47.832031 L 153.835938 41.375 L 155.773438 41.375 L 158.035156 46.929688 L 157.074219 46.929688 L 159.417969 41.375 L 161.226562 41.375 L 158.496094 47.832031 Z M 156.558594 47.832031 " fill-opacity="1" fill-rule="nonzero"/></g><g clip-path="url(#8753dbd5d6)"><path stroke-linecap="round" transform="matrix(0.041812, 0, 0, 0.0416858, 3.93356, 22.737185)" fill="none" stroke-linejoin="round" d="M 309.98224 641.16968 L 923.6857 641.16968 L 923.6857 640.982266 C 1006.366102 637.327693 1072.230152 569.108988 1072.230152 485.522334 C 1072.230152 401.93568 1002.535711 329.781282 916.492038 329.781282 C 890.613539 329.781282 866.136403 336.153358 844.555417 347.3982 C 819.144039 288.362783 767.293617 243.383417 704.045445 227.078397 M 178.44099 227.172104 C 87.726108 250.598857 20.55412 332.873613 20.55412 430.891147 C 20.55412 528.908681 87.819532 611.37085 178.627838 634.703896 " stroke="#00283d" stroke-width="41.209999" stroke-opacity="1" stroke-miterlimit="4"/></g><path stroke-linecap="round" transform="matrix(0.041812, 0, 0, 0.0416858, 3.93356, 22.737185)" fill="none" stroke-linejoin="round" d="M 421.157018 356.300366 L 339.317433 384.974711 L 375.285744 461.439632 " stroke="#21fa90" stroke-width="42.48" stroke-opacity="1" stroke-miterlimit="4"/><g clip-path="url(#89307dd665)"><path stroke-linecap="round" transform="matrix(0.041812, 0, 0, 0.0416858, 3.93356, 22.737185)" fill="none" stroke-linejoin="round" d="M 341.092493 386.380316 C 370.334262 403.622406 404.340665 413.461643 440.682672 413.461643 C 549.241573 413.461643 637.060306 325.564466 637.060306 217.145454 C 637.060306 108.632735 549.241573 20.641851 440.682672 20.641851 C 332.217195 20.641851 244.305039 108.632735 244.305039 216.95804 L 244.305039 509.979864 " stroke="#21fa90" stroke-width="41.209999" stroke-opacity="1" stroke-miterlimit="4"/></g><g clip-path="url(#ddf457e35f)"><path stroke-linecap="round" transform="matrix(0.041812, 0, 0, 0.0416858, 3.93356, 22.737185)" fill="none" stroke-linejoin="round" d="M 244.305039 819.681537 L 244.305039 853.978303 " stroke="#21fa90" stroke-width="41.209999" stroke-opacity="0.2" stroke-miterlimit="4"/></g><path stroke-linecap="round" transform="matrix(0.041812, 0, 0, 0.0416858, 3.93356, 22.737185)" fill="none" stroke-linejoin="round" d="M 244.585311 712.012181 L 244.585311 766.081126 " stroke="#21fa90" stroke-width="41.209999" stroke-opacity="0.4" stroke-miterlimit="4"/><path stroke-linecap="round" transform="matrix(0.041812, 0, 0, 0.0416858, 3.93356, 22.737185)" fill="none" stroke-linejoin="round" d="M 244.305039 565.735536 L 244.305039 656.069095 " stroke="#21fa90" stroke-width="41.209999" stroke-opacity="0.698" stroke-miterlimit="4"/></svg>