<svg xmlns="http://www.w3.org/2000/svg" xmlns:xlink="http://www.w3.org/1999/xlink" width="220" zoomAndPan="magnify" viewBox="0 0 165 82.499998" height="110" preserveAspectRatio="xMidYMid meet" version="1.0"><defs><clipPath id="ad2d70196d"><path d="M 0.496094 0 L 164.503906 0 L 164.503906 82.003906 L 0.496094 82.003906 Z M 0.496094 0 " clip-rule="nonzero"/></clipPath></defs><g clip-path="url(#ad2d70196d)"><path fill="#ffffff" d="M 0.496094 0 L 164.503906 0 L 164.503906 89.457031 L 0.496094 89.457031 Z M 0.496094 0 " fill-opacity="1" fill-rule="nonzero"/><path fill="#ffffff" d="M 0.496094 0 L 164.503906 0 L 164.503906 82.003906 L 0.496094 82.003906 Z M 0.496094 0 " fill-opacity="1" fill-rule="nonzero"/><path fill="#ffffff" d="M 0.496094 0 L 164.503906 0 L 164.503906 82.003906 L 0.496094 82.003906 Z M 0.496094 0 " fill-opacity="1" fill-rule="nonzero"/></g><path fill="#fd3456" d="M 39.753906 38.65625 C 39.769531 35.761719 39.238281 32.96875 38.167969 30.277344 C 37.945312 30.367188 37.789062 30.449219 37.675781 30.496094 C 37.433594 30.621094 37.25 30.800781 37.125 31.039062 C 37 31.277344 36.953125 31.53125 36.984375 31.796875 C 37.121094 32.964844 37.191406 34.136719 37.191406 35.3125 C 37.191406 40.679688 35.457031 45.824219 32.308594 49.800781 C 29.332031 53.566406 25.335938 55.984375 20.988281 56.675781 L 21.027344 56.699219 C 21.652344 57.054688 22.3125 57.328125 23.007812 57.523438 C 23.703125 57.71875 24.410156 57.824219 25.132812 57.847656 C 25.855469 57.871094 26.566406 57.804688 27.273438 57.652344 C 27.976562 57.5 28.652344 57.265625 29.300781 56.945312 C 35.433594 53.953125 39.753906 46.878906 39.753906 38.65625 Z M 39.753906 38.65625 " fill-opacity="1" fill-rule="nonzero"/><path fill="#fd3456" d="M 40.953125 29.730469 C 40.570312 29.71875 40.191406 29.742188 39.816406 29.804688 C 40.925781 32.648438 41.476562 35.601562 41.464844 38.65625 C 41.464844 47.875 36.320312 56.058594 28.8125 59.042969 C 29.191406 59.066406 29.574219 59.078125 29.957031 59.078125 L 30.007812 59.078125 C 30.902344 59.078125 31.785156 58.972656 32.65625 58.773438 C 33.527344 58.574219 34.367188 58.28125 35.171875 57.894531 C 35.980469 57.507812 36.734375 57.035156 37.433594 56.480469 C 38.136719 55.925781 38.765625 55.300781 39.328125 54.605469 C 42.203125 51.050781 43.96875 46.261719 43.96875 41.011719 C 44 36.976562 42.992188 33.214844 40.953125 29.730469 Z M 40.953125 29.730469 " fill-opacity="1" fill-rule="nonzero"/><path fill="#fd3456" d="M 48.050781 41.011719 C 48.050781 38.609375 47.59375 36.300781 46.671875 34.082031 C 46.269531 33.085938 45.691406 32.207031 44.933594 31.445312 C 44.527344 31.039062 44.074219 30.699219 43.566406 30.425781 C 43.441406 30.355469 43.308594 30.296875 43.183594 30.242188 C 44.863281 33.632812 45.699219 37.21875 45.6875 41 C 45.6875 46.335938 43.949219 51.476562 40.851562 55.417969 C 41.96875 54.578125 42.972656 53.621094 43.871094 52.546875 C 44.765625 51.472656 45.523438 50.3125 46.148438 49.0625 C 46.773438 47.8125 47.246094 46.507812 47.566406 45.144531 C 47.886719 43.785156 48.046875 42.40625 48.050781 41.011719 Z M 48.050781 41.011719 " fill-opacity="1" fill-rule="nonzero"/><path fill="#290042" d="M 42.9375 28.425781 C 42.09375 27.558594 41.175781 26.78125 40.179688 26.097656 C 39.179688 25.414062 38.125 24.835938 37.011719 24.363281 C 35.898438 23.894531 34.746094 23.539062 33.5625 23.296875 C 32.375 23.058594 31.175781 22.9375 29.96875 22.9375 C 19.96875 22.9375 11.777344 31.207031 11.878906 41.191406 C 11.894531 43.585938 12.367188 45.882812 13.300781 48.085938 C 13.003906 48.046875 12.703125 48.03125 12.40625 48.046875 C 11.59375 48.085938 10.445312 47.789062 9.925781 47.644531 C 9.410156 47.5 8.945312 47.917969 9.15625 48.402344 L 9.15625 48.414062 C 10.953125 52.523438 14.933594 55.199219 18.734375 55.191406 C 18.984375 55.191406 19.238281 55.175781 19.488281 55.148438 C 28.390625 54.472656 35.453125 45.84375 35.453125 35.328125 C 35.453125 34.671875 35.421875 34.011719 35.367188 33.351562 C 35.351562 33.171875 35.257812 33.058594 35.085938 33.007812 C 34.910156 32.960938 34.769531 33.007812 34.664062 33.152344 C 32.203125 36.40625 28.554688 42.125 23.996094 39.140625 C 22.238281 38 21.300781 35.539062 21.832031 33.03125 C 22.78125 28.535156 28.027344 25.578125 30.339844 26.5 C 30.523438 26.574219 31.171875 26.832031 31.394531 27.425781 C 31.734375 28.328125 30.710938 29.074219 30.191406 30.675781 C 29.632812 32.410156 29.949219 34.25 30.339844 34.328125 C 30.78125 34.417969 31.515625 32.804688 33.332031 31.34375 C 34.652344 30.28125 35.644531 29.984375 36.269531 28.859375 C 36.871094 27.761719 35.800781 26.605469 36.164062 26.5 C 36.527344 26.398438 36.871094 27.664062 37.957031 28.289062 C 38.863281 28.816406 39.671875 28.484375 40.867188 28.4375 C 41.308594 28.4375 41.746094 28.46875 42.183594 28.539062 C 42.183594 28.539062 42.417969 28.570312 42.789062 28.648438 C 42.855469 28.675781 42.910156 28.65625 42.953125 28.597656 C 42.992188 28.535156 42.988281 28.480469 42.9375 28.425781 Z M 29.453125 42.355469 C 29.660156 42.078125 29.933594 41.910156 30.273438 41.855469 C 30.578125 41.8125 30.847656 41.886719 31.085938 42.074219 C 31.527344 42.480469 31.394531 43.269531 31.015625 43.71875 C 30.667969 44.136719 29.972656 44.410156 29.492188 44.101562 C 29.207031 43.878906 29.0625 43.585938 29.066406 43.222656 C 29.082031 42.882812 29.210938 42.59375 29.453125 42.355469 Z M 29.453125 42.355469 " fill-opacity="1" fill-rule="nonzero"/><path fill="#290042" d="M 57.75 31.875 C 57.75 31.875 53.875 31.875 53.875 35.75 L 53.875 40.160156 C 53.875 40.160156 53.875 44.035156 57.75 44.035156 L 68.300781 44.035156 L 68.300781 48.445312 L 58.179688 48.445312 C 54.328125 48.445312 54.304688 52.320312 54.304688 52.320312 L 68.523438 52.320312 C 68.523438 52.320312 72.398438 52.320312 72.398438 48.445312 L 72.398438 44.035156 C 72.398438 44.035156 72.398438 40.160156 68.523438 40.160156 L 57.972656 40.160156 L 57.972656 35.742188 L 67.886719 35.742188 C 71.734375 35.742188 71.761719 31.867188 71.761719 31.867188 L 57.75 31.867188 Z M 57.75 31.875 " fill-opacity="1" fill-rule="nonzero"/><path fill="#290042" d="M 89.3125 31.875 L 78.542969 31.875 C 74.667969 31.875 74.667969 35.75 74.667969 35.75 L 74.667969 48.445312 C 74.667969 52.320312 78.542969 52.320312 78.542969 52.320312 L 89.3125 52.320312 C 93.1875 52.320312 93.1875 48.445312 93.1875 48.445312 L 93.1875 35.742188 C 93.1875 31.875 89.3125 31.875 89.3125 31.875 Z M 89.09375 48.445312 L 78.753906 48.445312 L 78.753906 35.742188 L 89.097656 35.742188 Z M 89.09375 48.445312 " fill-opacity="1" fill-rule="nonzero"/><path fill="#290042" d="M 95.667969 32.089844 L 95.667969 52.105469 L 99.761719 52.105469 L 99.761719 35.742188 C 99.761719 35.742188 99.761719 32.089844 95.667969 32.089844 Z M 95.667969 32.089844 " fill-opacity="1" fill-rule="nonzero"/><path fill="#290042" d="M 110.320312 31.875 L 103.644531 31.875 C 99.769531 31.875 99.769531 35.75 99.769531 35.75 L 110.109375 35.75 L 110.109375 52.105469 L 114.195312 52.105469 L 114.195312 35.742188 C 114.195312 31.875 110.320312 31.875 110.320312 31.875 Z M 110.320312 31.875 " fill-opacity="1" fill-rule="nonzero"/><path fill="#290042" d="M 121.195312 31.875 L 117.320312 31.875 C 117.320312 35.726562 121.195312 35.75 121.195312 35.75 L 131.117188 35.75 L 131.117188 39.730469 L 120.566406 39.730469 C 120.566406 39.730469 116.691406 39.730469 116.691406 43.605469 L 116.691406 48.445312 C 116.691406 48.445312 116.691406 52.320312 120.566406 52.320312 L 127.464844 52.320312 C 127.464844 52.320312 131.125 52.320312 131.125 48.445312 L 120.765625 48.445312 L 120.765625 43.441406 L 131.117188 43.441406 L 131.117188 48.445312 C 131.117188 48.445312 131.222656 52.105469 135.210938 52.105469 L 135.210938 35.742188 C 135.210938 35.742188 135.210938 31.867188 131.335938 31.867188 Z M 121.195312 31.875 " fill-opacity="1" fill-rule="nonzero"/><path fill="#290042" d="M 138.050781 32.089844 L 138.050781 52.105469 L 142.140625 52.105469 L 142.140625 35.742188 C 142.140625 32.089844 138.050781 32.089844 138.050781 32.089844 Z M 138.050781 32.089844 " fill-opacity="1" fill-rule="nonzero"/><path fill="#290042" d="M 146.019531 31.875 C 142.140625 31.875 142.140625 35.75 142.140625 35.75 L 152.269531 35.75 C 152.269531 35.75 156.148438 35.75 156.148438 31.875 Z M 146.019531 31.875 " fill-opacity="1" fill-rule="nonzero"/></svg>