<svg xmlns="http://www.w3.org/2000/svg" xmlns:xlink="http://www.w3.org/1999/xlink" width="220" zoomAndPan="magnify" viewBox="0 0 165 82.499998" height="110" preserveAspectRatio="xMidYMid meet" version="1.0"><defs><clipPath id="id1"><path d="M 0.496094 0 L 164.503906 0 L 164.503906 82.003906 L 0.496094 82.003906 Z M 0.496094 0 " clip-rule="nonzero"/></clipPath></defs><g clip-path="url(#id1)"><path fill="#ffffff" d="M 0.496094 0 L 164.503906 0 L 164.503906 89.457031 L 0.496094 89.457031 Z M 0.496094 0 " fill-opacity="1" fill-rule="nonzero"/><path fill="#ffffff" d="M 0.496094 0 L 164.503906 0 L 164.503906 82.003906 L 0.496094 82.003906 Z M 0.496094 0 " fill-opacity="1" fill-rule="nonzero"/><path fill="#ffffff" d="M 0.496094 0 L 164.503906 0 L 164.503906 82.003906 L 0.496094 82.003906 Z M 0.496094 0 " fill-opacity="1" fill-rule="nonzero"/><path fill="#ffffff" d="M 0.496094 0 L 164.503906 0 L 164.503906 82.003906 L 0.496094 82.003906 Z M 0.496094 0 " fill-opacity="1" fill-rule="nonzero"/></g><path fill="#f9423a" d="M 32.882812 42.199219 C 33.246094 42.042969 33.402344 41.652344 33.269531 41.289062 L 29.457031 31.816406 C 29.300781 31.453125 28.910156 31.296875 28.546875 31.425781 L 26.082031 32.414062 C 25.71875 32.570312 25.5625 32.957031 25.691406 33.320312 L 29.507812 42.796875 C 29.664062 43.160156 30.050781 43.3125 30.417969 43.183594 Z M 27.429688 45.234375 C 27.691406 44.976562 27.691406 44.535156 27.429688 44.25 L 18.164062 34.984375 C 17.90625 34.722656 17.464844 34.722656 17.207031 34.984375 L 15.308594 36.878906 C 15.050781 37.136719 15.050781 37.578125 15.308594 37.863281 L 24.578125 47.128906 C 24.835938 47.390625 25.277344 47.390625 25.5625 47.128906 Z M 23.484375 50.113281 C 23.640625 49.75 23.460938 49.363281 23.097656 49.207031 L 13.625 45.390625 C 13.261719 45.261719 12.871094 45.417969 12.714844 45.78125 L 11.730469 48.246094 C 11.574219 48.609375 11.753906 49 12.117188 49.152344 L 21.589844 52.96875 C 21.953125 53.097656 22.34375 52.941406 22.5 52.578125 Z M 22.578125 23.847656 C 32.753906 23.847656 41.003906 32.101562 41.003906 42.277344 C 41.003906 52.449219 32.753906 60.703125 22.578125 60.703125 C 12.402344 60.703125 4.148438 52.449219 4.148438 42.277344 C 4.148438 32.101562 12.402344 23.847656 22.578125 23.847656 Z M 120.632812 23.796875 C 121.101562 23.796875 121.179688 24.132812 121.101562 24.496094 L 119.855469 30.933594 C 119.804688 31.296875 119.597656 31.402344 119.257812 31.402344 L 116.222656 31.402344 C 115.753906 31.402344 115.675781 31.0625 115.753906 30.699219 L 117 24.261719 C 117.050781 23.898438 117.261719 23.796875 117.597656 23.796875 Z M 159.902344 37.1875 C 159.902344 37.527344 159.695312 37.683594 159.332031 37.683594 L 155.59375 37.683594 C 156.660156 39.550781 156.996094 41.496094 156.996094 43.546875 C 156.996094 50.453125 152.195312 56.214844 145.445312 56.214844 C 142.957031 56.214844 139.945312 54.96875 138.671875 52.398438 C 137.140625 54.34375 135.066406 56.214844 131.769531 56.214844 C 129.613281 56.214844 127.253906 55.511719 126.058594 53.359375 C 124.242188 55.175781 122.011719 56.214844 119.699219 56.214844 C 112.796875 56.214844 112.042969 50.425781 112.953125 45.261719 L 113.988281 39.160156 C 112.328125 40.019531 109.890625 40.019531 108.566406 39.730469 C 108.902344 40.976562 109.03125 42.222656 109.03125 43.445312 C 109.03125 50.113281 105.320312 56.238281 97.976562 56.238281 C 95.40625 56.238281 92.628906 55.046875 91.359375 52.398438 C 89.980469 54.785156 87.335938 56.238281 84.660156 56.238281 C 82.636719 56.238281 80.40625 55.125 79.289062 52.890625 C 77.421875 55.332031 74.617188 56.238281 72.332031 56.238281 C 67.53125 56.238281 65.558594 53.253906 65.558594 48.660156 C 65.558594 47.464844 65.714844 46.167969 65.972656 44.765625 L 67.921875 33.996094 C 67.972656 33.710938 68.179688 33.582031 68.492188 33.582031 L 71.890625 33.582031 C 72.308594 33.582031 72.359375 33.917969 72.308594 34.152344 L 70.335938 44.871094 C 69.503906 49.335938 69.789062 51.984375 72.929688 51.984375 C 75.65625 51.984375 77.652344 50.113281 78.378906 45.988281 L 80.535156 33.996094 C 80.585938 33.710938 80.792969 33.582031 81.105469 33.582031 L 84.503906 33.582031 C 84.921875 33.582031 84.972656 33.917969 84.921875 34.152344 L 82.921875 45.128906 C 82.429688 47.726562 82.015625 51.957031 85.207031 51.957031 C 87.492188 51.957031 88.917969 49.671875 89.878906 44.585938 L 93.589844 24.238281 C 93.640625 23.953125 93.902344 23.820312 94.160156 23.820312 L 97.5625 23.820312 C 97.792969 23.820312 98.054688 24.03125 97.976562 24.394531 L 96.054688 35.035156 C 97.742188 34.074219 99.6875 33.503906 101.558594 33.503906 C 103.246094 33.503906 104.414062 33.996094 105.582031 34.542969 C 109.449219 36.460938 113.132812 35.398438 114.742188 33.890625 C 114.949219 33.683594 115.15625 33.582031 115.445312 33.582031 C 115.519531 33.582031 118.792969 33.582031 118.792969 33.582031 C 119.335938 33.582031 119.414062 33.945312 119.335938 34.359375 L 117.285156 45.285156 C 116.664062 48.296875 116.714844 51.957031 119.933594 51.957031 C 122.632812 51.957031 124.398438 49.230469 125.226562 44.871094 L 126.605469 37.914062 L 122.761719 37.914062 C 122.347656 37.914062 122.089844 37.707031 122.089844 37.34375 L 122.089844 34.203125 C 122.089844 33.789062 122.296875 33.582031 122.660156 33.582031 L 127.433594 33.582031 L 129.226562 24.261719 C 129.277344 23.898438 129.484375 23.796875 129.824219 23.796875 L 133.144531 23.796875 C 133.613281 23.796875 133.691406 24.132812 133.613281 24.496094 L 131.847656 33.582031 L 136.960938 33.582031 C 137.324219 33.582031 137.53125 33.789062 137.53125 34.152344 L 137.53125 37.371094 C 137.53125 37.707031 137.324219 37.914062 136.984375 37.914062 L 130.992188 37.914062 L 129.535156 45.285156 C 129.042969 47.855469 128.707031 51.957031 131.898438 51.957031 C 135.453125 51.957031 136.699219 48.402344 137.246094 44.558594 C 138.308594 36.957031 142.878906 33.425781 149.027344 33.425781 L 159.308594 33.425781 C 159.671875 33.425781 159.878906 33.632812 159.878906 33.996094 L 159.878906 37.1875 Z M 104.515625 43.597656 C 104.515625 39.550781 102.570312 37.734375 100.363281 37.734375 C 97.378906 37.734375 94.109375 40.875 94.109375 46.144531 C 94.109375 49.335938 95.484375 51.984375 98.339844 51.984375 C 101.558594 51.957031 104.515625 48.738281 104.515625 43.597656 Z M 152.480469 43.597656 C 152.480469 39.550781 150.457031 37.734375 148.144531 37.734375 C 145.03125 37.734375 141.605469 40.875 141.605469 46.144531 C 141.605469 49.335938 143.058594 51.984375 146.042969 51.984375 C 149.367188 51.957031 152.480469 48.738281 152.480469 43.597656 Z M 64.726562 36.515625 L 63.171875 38.953125 C 62.964844 39.238281 62.675781 39.292969 62.417969 39.109375 C 61.042969 38.332031 59.40625 37.242188 56.96875 37.242188 C 54.683594 37.242188 53.125 37.992188 53.125 39.421875 C 53.125 40.746094 53.59375 41.160156 57.433594 42.769531 C 61.5625 44.507812 63.558594 46.039062 63.558594 49.726562 C 63.558594 54.605469 59.539062 56.1875 55.203125 56.1875 C 53.386719 56.1875 49.648438 55.980469 46.714844 52.578125 L 45.859375 51.59375 C 45.730469 51.410156 45.652344 51.308594 45.652344 51.125 C 45.652344 50.96875 45.730469 50.789062 45.859375 50.660156 L 48.222656 48.582031 C 48.351562 48.480469 48.480469 48.425781 48.636719 48.425781 C 48.765625 48.425781 48.921875 48.453125 49.050781 48.632812 C 50.921875 50.839844 52.816406 51.957031 55.230469 51.957031 C 57.875 51.957031 59.042969 51.257812 59.042969 49.726562 C 59.042969 48.558594 58.550781 47.984375 55.4375 46.664062 C 50.789062 44.714844 48.738281 43.261719 48.738281 39.421875 C 48.738281 35.578125 51.957031 32.933594 57.097656 32.933594 C 59.613281 32.933594 62.238281 33.761719 64.625 35.449219 C 64.859375 35.605469 64.960938 35.8125 64.960938 35.996094 C 64.882812 36.175781 64.804688 36.359375 64.726562 36.515625 Z M 64.726562 36.515625 " fill-opacity="1" fill-rule="evenodd"/></svg>