<svg xmlns="http://www.w3.org/2000/svg" xmlns:xlink="http://www.w3.org/1999/xlink" width="220" zoomAndPan="magnify" viewBox="0 0 165 82.499998" height="110" preserveAspectRatio="xMidYMid meet" version="1.0"><defs><clipPath id="30df69fd1a"><path d="M 0.496094 0 L 164.503906 0 L 164.503906 82.003906 L 0.496094 82.003906 Z M 0.496094 0 " clip-rule="nonzero"/></clipPath><clipPath id="34d6a9be7d"><path d="M 3.59375 29.488281 L 43 29.488281 L 43 52.597656 L 3.59375 52.597656 Z M 3.59375 29.488281 " clip-rule="nonzero"/></clipPath><clipPath id="35ab2e863c"><path d="M 39 39 L 55 39 L 55 52.597656 L 39 52.597656 Z M 39 39 " clip-rule="nonzero"/></clipPath><clipPath id="73293a5169"><path d="M 69 44 L 77 44 L 77 52.597656 L 69 52.597656 Z M 69 44 " clip-rule="nonzero"/></clipPath><clipPath id="431d33fe87"><path d="M 78 43 L 88 43 L 88 52.597656 L 78 52.597656 Z M 78 43 " clip-rule="nonzero"/></clipPath><clipPath id="d26cddbd46"><path d="M 90 44 L 99 44 L 99 52.597656 L 90 52.597656 Z M 90 44 " clip-rule="nonzero"/></clipPath><clipPath id="fcfa4cf814"><path d="M 101 44 L 110 44 L 110 52.597656 L 101 52.597656 Z M 101 44 " clip-rule="nonzero"/></clipPath><clipPath id="f86623c13e"><path d="M 113 44 L 120 44 L 120 52.597656 L 113 52.597656 Z M 113 44 " clip-rule="nonzero"/></clipPath><clipPath id="b632c2b0dc"><path d="M 122 44 L 130 44 L 130 52.597656 L 122 52.597656 Z M 122 44 " clip-rule="nonzero"/></clipPath><clipPath id="93bfb0b6c1"><path d="M 131 43 L 142 43 L 142 52.597656 L 131 52.597656 Z M 131 43 " clip-rule="nonzero"/></clipPath><clipPath id="7027c706d7"><path d="M 144 44 L 152 44 L 152 52.597656 L 144 52.597656 Z M 144 44 " clip-rule="nonzero"/></clipPath><clipPath id="7dab2ed709"><path d="M 154 44 L 161.636719 44 L 161.636719 52.597656 L 154 52.597656 Z M 154 44 " clip-rule="nonzero"/></clipPath><clipPath id="df0e5c73bd"><path d="M 58 43 L 68 43 L 68 52.597656 L 58 52.597656 Z M 58 43 " clip-rule="nonzero"/></clipPath></defs><g clip-path="url(#30df69fd1a)"><path fill="#ffffff" d="M 0.496094 0 L 164.503906 0 L 164.503906 82.003906 L 0.496094 82.003906 Z M 0.496094 0 " fill-opacity="1" fill-rule="nonzero"/><path fill="#ffffff" d="M 0.496094 0 L 164.503906 0 L 164.503906 82.003906 L 0.496094 82.003906 Z M 0.496094 0 " fill-opacity="1" fill-rule="nonzero"/></g><g clip-path="url(#34d6a9be7d)"><path fill="#f78100" d="M 38.304688 52.238281 L 38.566406 51.335938 C 38.871094 50.261719 38.757812 49.273438 38.238281 48.542969 C 37.753906 47.871094 36.964844 47.476562 35.996094 47.433594 L 17.667969 47.199219 C 17.542969 47.195312 17.445312 47.144531 17.375 47.039062 C 17.308594 46.9375 17.292969 46.828125 17.339844 46.710938 C 17.410156 46.511719 17.550781 46.402344 17.765625 46.386719 L 36.269531 46.144531 C 38.453125 46.042969 40.839844 44.257812 41.671875 42.078125 L 42.726562 39.316406 C 42.757812 39.238281 42.769531 39.160156 42.769531 39.074219 C 42.769531 39.03125 42.765625 38.988281 42.753906 38.941406 C 42.613281 38.304688 42.417969 37.683594 42.175781 37.074219 C 41.933594 36.46875 41.640625 35.886719 41.304688 35.328125 C 40.964844 34.769531 40.585938 34.238281 40.160156 33.742188 C 39.738281 33.246094 39.277344 32.785156 38.777344 32.363281 C 38.28125 31.941406 37.75 31.5625 37.191406 31.226562 C 36.632812 30.886719 36.046875 30.601562 35.441406 30.359375 C 34.835938 30.117188 34.214844 29.925781 33.574219 29.785156 C 32.9375 29.648438 32.292969 29.558594 31.640625 29.523438 C 30.992188 29.488281 30.339844 29.507812 29.691406 29.578125 C 29.042969 29.648438 28.402344 29.769531 27.773438 29.945312 C 27.144531 30.121094 26.535156 30.34375 25.941406 30.617188 C 25.351562 30.890625 24.785156 31.210938 24.242188 31.578125 C 23.703125 31.945312 23.195312 32.351562 22.722656 32.800781 C 22.246094 33.25 21.8125 33.734375 21.414062 34.253906 C 21.019531 34.773438 20.667969 35.324219 20.359375 35.898438 C 20.054688 36.476562 19.792969 37.074219 19.582031 37.691406 C 19.132812 37.359375 18.644531 37.101562 18.117188 36.917969 C 17.585938 36.734375 17.042969 36.636719 16.484375 36.621094 C 15.921875 36.609375 15.375 36.679688 14.835938 36.835938 C 14.300781 36.992188 13.796875 37.226562 13.332031 37.539062 C 12.867188 37.851562 12.460938 38.226562 12.109375 38.664062 C 11.761719 39.101562 11.484375 39.582031 11.285156 40.105469 C 11.085938 40.628906 10.96875 41.171875 10.933594 41.730469 C 10.902344 42.292969 10.953125 42.84375 11.089844 43.386719 C 10.546875 43.402344 10.007812 43.472656 9.476562 43.601562 C 8.949219 43.730469 8.4375 43.914062 7.945312 44.152344 C 7.453125 44.386719 6.992188 44.675781 6.5625 45.011719 C 6.132812 45.347656 5.742188 45.722656 5.390625 46.140625 C 5.039062 46.558594 4.738281 47.011719 4.484375 47.496094 C 4.226562 47.976562 4.027344 48.480469 3.878906 49.007812 C 3.730469 49.535156 3.640625 50.070312 3.605469 50.613281 C 3.570312 51.160156 3.59375 51.703125 3.675781 52.242188 C 3.703125 52.449219 3.820312 52.550781 4.027344 52.554688 L 37.875 52.554688 C 38.097656 52.554688 38.242188 52.449219 38.304688 52.238281 Z M 38.304688 52.238281 " fill-opacity="1" fill-rule="nonzero"/></g><g clip-path="url(#35ab2e863c)"><path fill="#fcad32" d="M 44.414062 39.527344 C 44.25 39.527344 44.082031 39.53125 43.902344 39.542969 C 43.875 39.542969 43.851562 39.546875 43.824219 39.558594 C 43.730469 39.589844 43.667969 39.65625 43.640625 39.753906 L 42.914062 42.246094 C 42.601562 43.320312 42.714844 44.308594 43.238281 45.039062 C 43.503906 45.390625 43.835938 45.660156 44.230469 45.855469 C 44.625 46.050781 45.042969 46.148438 45.480469 46.148438 L 49.390625 46.394531 C 49.507812 46.398438 49.601562 46.449219 49.667969 46.542969 C 49.738281 46.648438 49.75 46.757812 49.707031 46.878906 C 49.636719 47.078125 49.496094 47.1875 49.28125 47.203125 L 45.222656 47.445312 C 43.019531 47.546875 40.640625 49.332031 39.808594 51.507812 L 39.515625 52.277344 C 39.488281 52.34375 39.496094 52.410156 39.535156 52.472656 C 39.578125 52.535156 39.632812 52.566406 39.707031 52.570312 L 53.691406 52.570312 C 53.890625 52.578125 54.015625 52.480469 54.066406 52.289062 C 54.167969 51.914062 54.253906 51.539062 54.3125 51.15625 C 54.375 50.777344 54.410156 50.390625 54.429688 50.007812 C 54.445312 49.621094 54.4375 49.234375 54.410156 48.851562 C 54.382812 48.464844 54.332031 48.082031 54.261719 47.703125 C 54.1875 47.324219 54.09375 46.949219 53.980469 46.582031 C 53.867188 46.210938 53.730469 45.851562 53.574219 45.496094 C 53.417969 45.144531 53.242188 44.800781 53.042969 44.46875 C 52.847656 44.136719 52.632812 43.816406 52.402344 43.507812 C 52.167969 43.199219 51.917969 42.90625 51.652344 42.628906 C 51.386719 42.347656 51.105469 42.085938 50.808594 41.839844 C 50.511719 41.59375 50.199219 41.363281 49.878906 41.152344 C 49.554688 40.941406 49.21875 40.75 48.875 40.578125 C 48.53125 40.40625 48.175781 40.257812 47.8125 40.125 C 47.453125 39.992188 47.082031 39.882812 46.707031 39.792969 C 46.332031 39.707031 45.953125 39.640625 45.570312 39.59375 C 45.1875 39.550781 44.804688 39.527344 44.417969 39.527344 Z M 44.414062 39.527344 " fill-opacity="1" fill-rule="nonzero"/></g><g clip-path="url(#73293a5169)"><path fill="#000000" d="M 69.847656 44.027344 L 72.160156 44.027344 L 72.160156 50.363281 L 76.203125 50.363281 L 76.203125 52.394531 L 69.847656 52.394531 Z M 69.847656 44.027344 " fill-opacity="1" fill-rule="nonzero"/></g><g clip-path="url(#431d33fe87)"><path fill="#000000" d="M 78.601562 48.242188 L 78.601562 48.222656 C 78.601562 45.820312 80.542969 43.871094 83.109375 43.871094 C 85.675781 43.871094 87.59375 45.796875 87.59375 48.199219 L 87.59375 48.222656 C 87.59375 50.625 85.652344 52.570312 83.085938 52.570312 C 80.519531 52.570312 78.601562 50.640625 78.601562 48.242188 M 85.234375 48.242188 L 85.234375 48.222656 C 85.234375 47.007812 84.363281 45.964844 83.085938 45.964844 C 81.808594 45.964844 80.972656 46.988281 80.972656 48.199219 L 80.972656 48.222656 C 80.972656 49.4375 81.847656 50.480469 83.109375 50.480469 C 84.375 50.480469 85.234375 49.453125 85.234375 48.242188 " fill-opacity="1" fill-rule="nonzero"/></g><g clip-path="url(#d26cddbd46)"><path fill="#000000" d="M 90.425781 48.730469 L 90.425781 44.027344 L 92.777344 44.027344 L 92.777344 48.675781 C 92.777344 49.894531 93.382812 50.460938 94.316406 50.460938 C 95.246094 50.460938 95.855469 49.910156 95.855469 48.738281 L 95.855469 44.027344 L 98.203125 44.027344 L 98.203125 48.664062 C 98.203125 51.367188 96.664062 52.554688 94.292969 52.554688 C 91.917969 52.554688 90.425781 51.339844 90.425781 48.730469 " fill-opacity="1" fill-rule="nonzero"/></g><g clip-path="url(#fcfa4cf814)"><path fill="#000000" d="M 101.746094 44.027344 L 104.964844 44.027344 C 107.949219 44.027344 109.679688 45.75 109.679688 48.160156 L 109.679688 48.1875 C 109.679688 50.601562 107.925781 52.390625 104.921875 52.390625 L 101.746094 52.390625 Z M 105.003906 50.351562 C 106.386719 50.351562 107.304688 49.582031 107.304688 48.230469 L 107.304688 48.210938 C 107.304688 46.871094 106.386719 46.09375 105.003906 46.09375 L 104.054688 46.09375 L 104.054688 50.339844 Z M 105.003906 50.351562 " fill-opacity="1" fill-rule="nonzero"/></g><g clip-path="url(#f86623c13e)"><path fill="#000000" d="M 113.042969 44.027344 L 119.71875 44.027344 L 119.71875 46.058594 L 115.355469 46.058594 L 115.355469 47.484375 L 119.304688 47.484375 L 119.304688 49.40625 L 115.355469 49.40625 L 115.355469 52.394531 L 113.042969 52.394531 Z M 113.042969 44.027344 " fill-opacity="1" fill-rule="nonzero"/></g><g clip-path="url(#b632c2b0dc)"><path fill="#000000" d="M 122.941406 44.027344 L 125.253906 44.027344 L 125.253906 50.363281 L 129.300781 50.363281 L 129.300781 52.394531 L 122.941406 52.394531 Z M 122.941406 44.027344 " fill-opacity="1" fill-rule="nonzero"/></g><g clip-path="url(#93bfb0b6c1)"><path fill="#000000" d="M 135.355469 43.96875 L 137.585938 43.96875 L 141.132812 52.394531 L 138.652344 52.394531 L 138.042969 50.902344 L 134.820312 50.902344 L 134.226562 52.394531 L 131.800781 52.394531 Z M 137.382812 49.09375 L 136.453125 46.71875 L 135.503906 49.09375 Z M 137.382812 49.09375 " fill-opacity="1" fill-rule="nonzero"/></g><g clip-path="url(#7027c706d7)"><path fill="#000000" d="M 144.113281 44.027344 L 148.058594 44.027344 C 149.339844 44.027344 150.21875 44.363281 150.78125 44.9375 C 151.3125 45.476562 151.558594 46.125 151.519531 46.882812 L 151.519531 46.90625 C 151.539062 47.476562 151.390625 47.996094 151.074219 48.46875 C 150.757812 48.941406 150.335938 49.277344 149.800781 49.476562 L 151.796875 52.394531 L 149.125 52.394531 L 147.441406 49.859375 L 146.425781 49.859375 L 146.425781 52.394531 L 144.113281 52.394531 Z M 147.953125 48.042969 C 148.742188 48.042969 149.195312 47.660156 149.195312 47.050781 L 149.195312 47.027344 C 149.195312 46.371094 148.710938 46.035156 147.941406 46.035156 L 146.425781 46.035156 L 146.425781 48.042969 Z M 147.953125 48.042969 " fill-opacity="1" fill-rule="nonzero"/></g><g clip-path="url(#7dab2ed709)"><path fill="#000000" d="M 154.859375 44.027344 L 161.578125 44.027344 L 161.578125 46 L 157.152344 46 L 157.152344 47.265625 L 161.160156 47.265625 L 161.160156 49.09375 L 157.152344 49.09375 L 157.152344 50.421875 L 161.636719 50.421875 L 161.636719 52.394531 L 154.859375 52.394531 Z M 154.859375 44.027344 " fill-opacity="1" fill-rule="nonzero"/></g><g clip-path="url(#df0e5c73bd)"><path fill="#000000" d="M 64.78125 49.214844 C 64.617188 49.601562 64.363281 49.90625 64.015625 50.136719 C 63.664062 50.363281 63.285156 50.476562 62.867188 50.472656 C 61.601562 50.472656 60.730469 49.417969 60.730469 48.210938 L 60.730469 48.1875 C 60.730469 46.972656 61.578125 45.949219 62.84375 45.949219 C 63.289062 45.949219 63.691406 46.074219 64.054688 46.328125 C 64.417969 46.582031 64.675781 46.921875 64.828125 47.339844 L 67.253906 47.339844 C 66.875 45.347656 65.132812 43.867188 62.867188 43.867188 C 60.289062 43.867188 58.359375 45.8125 58.359375 48.21875 L 58.359375 48.242188 C 58.359375 50.644531 60.265625 52.570312 62.84375 52.570312 C 65.046875 52.570312 66.769531 51.140625 67.222656 49.226562 Z M 64.78125 49.214844 " fill-opacity="1" fill-rule="nonzero"/></g></svg>