<svg xmlns="http://www.w3.org/2000/svg" xmlns:xlink="http://www.w3.org/1999/xlink" width="220" zoomAndPan="magnify" viewBox="0 0 165 82.499998" height="110" preserveAspectRatio="xMidYMid meet" version="1.0"><defs><clipPath id="ddd2444239"><path d="M 0.496094 0 L 164.503906 0 L 164.503906 82.003906 L 0.496094 82.003906 Z M 0.496094 0 " clip-rule="nonzero"/></clipPath><clipPath id="c389a41267"><path d="M 8.699219 24.226562 L 43 24.226562 L 43 57.773438 L 8.699219 57.773438 Z M 8.699219 24.226562 " clip-rule="nonzero"/></clipPath><clipPath id="6bff5b7a54"><path d="M 25.46875 57.773438 C 34.734375 57.773438 42.242188 50.265625 42.242188 41 C 42.242188 31.738281 34.734375 24.226562 25.46875 24.226562 C 16.207031 24.226562 8.699219 31.738281 8.699219 41 C 8.699219 50.265625 16.207031 57.773438 25.46875 57.773438 Z M 25.46875 57.773438 " clip-rule="evenodd"/></clipPath><linearGradient x1="0.699" gradientTransform="matrix(0.335467, 0, 0, 0.335467, 8.697291, 24.228162)" y1="-0.00000300926" x2="0.699" gradientUnits="userSpaceOnUse" y2="99.99999" id="6ec686e602"><stop stop-opacity="1" stop-color="rgb(100%, 39.99939%, 19.999695%)" offset="0"/><stop stop-opacity="1" stop-color="rgb(100%, 39.862061%, 20.123291%)" offset="0.0078125"/><stop stop-opacity="1" stop-color="rgb(100%, 39.588928%, 20.372009%)" offset="0.015625"/><stop stop-opacity="1" stop-color="rgb(100%, 39.315796%, 20.620728%)" offset="0.0234375"/><stop stop-opacity="1" stop-color="rgb(100%, 39.041138%, 20.869446%)" offset="0.03125"/><stop stop-opacity="1" stop-color="rgb(100%, 38.768005%, 21.118164%)" offset="0.0390625"/><stop stop-opacity="1" stop-color="rgb(100%, 38.494873%, 21.366882%)" offset="0.046875"/><stop stop-opacity="1" stop-color="rgb(100%, 38.221741%, 21.615601%)" offset="0.0546875"/><stop stop-opacity="1" stop-color="rgb(100%, 37.948608%, 21.864319%)" offset="0.0625"/><stop stop-opacity="1" stop-color="rgb(100%, 37.675476%, 22.113037%)" offset="0.0703125"/><stop stop-opacity="1" stop-color="rgb(100%, 37.402344%, 22.361755%)" offset="0.078125"/><stop stop-opacity="1" stop-color="rgb(100%, 37.127686%, 22.610474%)" offset="0.0859375"/><stop stop-opacity="1" stop-color="rgb(100%, 36.854553%, 22.859192%)" offset="0.09375"/><stop stop-opacity="1" stop-color="rgb(100%, 36.581421%, 23.10791%)" offset="0.101562"/><stop stop-opacity="1" stop-color="rgb(100%, 36.308289%, 23.356628%)" offset="0.109375"/><stop stop-opacity="1" stop-color="rgb(100%, 36.035156%, 23.605347%)" offset="0.117188"/><stop stop-opacity="1" stop-color="rgb(100%, 35.762024%, 23.854065%)" offset="0.125"/><stop stop-opacity="1" stop-color="rgb(100%, 35.488892%, 24.102783%)" offset="0.132813"/><stop stop-opacity="1" stop-color="rgb(100%, 35.214233%, 24.353027%)" offset="0.140625"/><stop stop-opacity="1" stop-color="rgb(100%, 34.941101%, 24.601746%)" offset="0.148438"/><stop stop-opacity="1" stop-color="rgb(100%, 34.667969%, 24.850464%)" offset="0.15625"/><stop stop-opacity="1" stop-color="rgb(100%, 34.394836%, 25.099182%)" offset="0.164063"/><stop stop-opacity="1" stop-color="rgb(100%, 34.121704%, 25.3479%)" offset="0.171875"/><stop stop-opacity="1" stop-color="rgb(100%, 33.848572%, 25.596619%)" offset="0.179688"/><stop stop-opacity="1" stop-color="rgb(100%, 33.575439%, 25.845337%)" offset="0.1875"/><stop stop-opacity="1" stop-color="rgb(100%, 33.300781%, 26.094055%)" offset="0.195313"/><stop stop-opacity="1" stop-color="rgb(100%, 33.027649%, 26.342773%)" offset="0.203125"/><stop stop-opacity="1" stop-color="rgb(100%, 32.754517%, 26.591492%)" offset="0.210938"/><stop stop-opacity="1" stop-color="rgb(100%, 32.481384%, 26.84021%)" offset="0.21875"/><stop stop-opacity="1" stop-color="rgb(100%, 32.208252%, 27.088928%)" offset="0.226563"/><stop stop-opacity="1" stop-color="rgb(100%, 31.93512%, 27.337646%)" offset="0.234375"/><stop stop-opacity="1" stop-color="rgb(100%, 31.661987%, 27.586365%)" offset="0.242188"/><stop stop-opacity="1" stop-color="rgb(100%, 31.387329%, 27.835083%)" offset="0.25"/><stop stop-opacity="1" stop-color="rgb(100%, 31.114197%, 28.083801%)" offset="0.257812"/><stop stop-opacity="1" stop-color="rgb(100%, 30.841064%, 28.33252%)" offset="0.265625"/><stop stop-opacity="1" stop-color="rgb(100%, 30.567932%, 28.581238%)" offset="0.273438"/><stop stop-opacity="1" stop-color="rgb(100%, 30.2948%, 28.829956%)" offset="0.28125"/><stop stop-opacity="1" stop-color="rgb(100%, 30.021667%, 29.078674%)" offset="0.289062"/><stop stop-opacity="1" stop-color="rgb(100%, 29.748535%, 29.327393%)" offset="0.296875"/><stop stop-opacity="1" stop-color="rgb(100%, 29.473877%, 29.576111%)" offset="0.304688"/><stop stop-opacity="1" stop-color="rgb(100%, 29.200745%, 29.826355%)" offset="0.3125"/><stop stop-opacity="1" stop-color="rgb(100%, 28.927612%, 30.075073%)" offset="0.320313"/><stop stop-opacity="1" stop-color="rgb(100%, 28.65448%, 30.323792%)" offset="0.328125"/><stop stop-opacity="1" stop-color="rgb(100%, 28.381348%, 30.57251%)" offset="0.335937"/><stop stop-opacity="1" stop-color="rgb(100%, 28.108215%, 30.821228%)" offset="0.34375"/><stop stop-opacity="1" stop-color="rgb(100%, 27.835083%, 31.069946%)" offset="0.351562"/><stop stop-opacity="1" stop-color="rgb(100%, 27.560425%, 31.318665%)" offset="0.359375"/><stop stop-opacity="1" stop-color="rgb(100%, 27.287292%, 31.567383%)" offset="0.367188"/><stop stop-opacity="1" stop-color="rgb(100%, 27.01416%, 31.816101%)" offset="0.375"/><stop stop-opacity="1" stop-color="rgb(100%, 26.741028%, 32.064819%)" offset="0.382812"/><stop stop-opacity="1" stop-color="rgb(100%, 26.467896%, 32.313538%)" offset="0.390625"/><stop stop-opacity="1" stop-color="rgb(100%, 26.194763%, 32.562256%)" offset="0.398438"/><stop stop-opacity="1" stop-color="rgb(100%, 25.921631%, 32.810974%)" offset="0.40625"/><stop stop-opacity="1" stop-color="rgb(100%, 25.646973%, 33.059692%)" offset="0.414063"/><stop stop-opacity="1" stop-color="rgb(100%, 25.37384%, 33.308411%)" offset="0.421875"/><stop stop-opacity="1" stop-color="rgb(100%, 25.100708%, 33.557129%)" offset="0.429687"/><stop stop-opacity="1" stop-color="rgb(100%, 24.827576%, 33.805847%)" offset="0.4375"/><stop stop-opacity="1" stop-color="rgb(100%, 24.554443%, 34.054565%)" offset="0.445312"/><stop stop-opacity="1" stop-color="rgb(100%, 24.281311%, 34.303284%)" offset="0.453125"/><stop stop-opacity="1" stop-color="rgb(100%, 24.008179%, 34.552002%)" offset="0.460938"/><stop stop-opacity="1" stop-color="rgb(100%, 23.733521%, 34.80072%)" offset="0.46875"/><stop stop-opacity="1" stop-color="rgb(100%, 23.460388%, 35.049438%)" offset="0.476562"/><stop stop-opacity="1" stop-color="rgb(100%, 23.187256%, 35.299683%)" offset="0.484375"/><stop stop-opacity="1" stop-color="rgb(100%, 22.914124%, 35.548401%)" offset="0.492188"/><stop stop-opacity="1" stop-color="rgb(100%, 22.640991%, 35.797119%)" offset="0.5"/><stop stop-opacity="1" stop-color="rgb(100%, 22.367859%, 36.045837%)" offset="0.507812"/><stop stop-opacity="1" stop-color="rgb(100%, 22.094727%, 36.294556%)" offset="0.515625"/><stop stop-opacity="1" stop-color="rgb(100%, 21.820068%, 36.543274%)" offset="0.523438"/><stop stop-opacity="1" stop-color="rgb(100%, 21.546936%, 36.791992%)" offset="0.53125"/><stop stop-opacity="1" stop-color="rgb(100%, 21.273804%, 37.04071%)" offset="0.539063"/><stop stop-opacity="1" stop-color="rgb(100%, 21.000671%, 37.289429%)" offset="0.546875"/><stop stop-opacity="1" stop-color="rgb(100%, 20.727539%, 37.538147%)" offset="0.554688"/><stop stop-opacity="1" stop-color="rgb(100%, 20.454407%, 37.786865%)" offset="0.5625"/><stop stop-opacity="1" stop-color="rgb(100%, 20.181274%, 38.035583%)" offset="0.570312"/><stop stop-opacity="1" stop-color="rgb(100%, 19.906616%, 38.284302%)" offset="0.578125"/><stop stop-opacity="1" stop-color="rgb(100%, 19.633484%, 38.53302%)" offset="0.585938"/><stop stop-opacity="1" stop-color="rgb(100%, 19.360352%, 38.781738%)" offset="0.59375"/><stop stop-opacity="1" stop-color="rgb(100%, 19.087219%, 39.030457%)" offset="0.601562"/><stop stop-opacity="1" stop-color="rgb(100%, 18.814087%, 39.279175%)" offset="0.609375"/><stop stop-opacity="1" stop-color="rgb(100%, 18.540955%, 39.527893%)" offset="0.617188"/><stop stop-opacity="1" stop-color="rgb(100%, 18.267822%, 39.776611%)" offset="0.625"/><stop stop-opacity="1" stop-color="rgb(100%, 17.993164%, 40.02533%)" offset="0.632813"/><stop stop-opacity="1" stop-color="rgb(100%, 17.720032%, 40.274048%)" offset="0.640625"/><stop stop-opacity="1" stop-color="rgb(100%, 17.446899%, 40.522766%)" offset="0.648438"/><stop stop-opacity="1" stop-color="rgb(100%, 17.173767%, 40.77301%)" offset="0.65625"/><stop stop-opacity="1" stop-color="rgb(100%, 16.900635%, 41.021729%)" offset="0.664062"/><stop stop-opacity="1" stop-color="rgb(100%, 16.627502%, 41.270447%)" offset="0.671875"/><stop stop-opacity="1" stop-color="rgb(100%, 16.35437%, 41.519165%)" offset="0.679688"/><stop stop-opacity="1" stop-color="rgb(100%, 16.079712%, 41.767883%)" offset="0.6875"/><stop stop-opacity="1" stop-color="rgb(100%, 15.80658%, 42.016602%)" offset="0.695312"/><stop stop-opacity="1" stop-color="rgb(100%, 15.533447%, 42.26532%)" offset="0.703125"/><stop stop-opacity="1" stop-color="rgb(100%, 15.260315%, 42.514038%)" offset="0.710938"/><stop stop-opacity="1" stop-color="rgb(100%, 14.987183%, 42.762756%)" offset="0.71875"/><stop stop-opacity="1" stop-color="rgb(100%, 14.71405%, 43.011475%)" offset="0.726563"/><stop stop-opacity="1" stop-color="rgb(100%, 14.440918%, 43.260193%)" offset="0.734375"/><stop stop-opacity="1" stop-color="rgb(100%, 14.16626%, 43.508911%)" offset="0.742188"/><stop stop-opacity="1" stop-color="rgb(100%, 13.893127%, 43.757629%)" offset="0.75"/><stop stop-opacity="1" stop-color="rgb(100%, 13.619995%, 44.006348%)" offset="0.757812"/><stop stop-opacity="1" stop-color="rgb(100%, 13.346863%, 44.255066%)" offset="0.765625"/><stop stop-opacity="1" stop-color="rgb(100%, 13.07373%, 44.503784%)" offset="0.773437"/><stop stop-opacity="1" stop-color="rgb(100%, 12.800598%, 44.752502%)" offset="0.78125"/><stop stop-opacity="1" stop-color="rgb(100%, 12.527466%, 45.001221%)" offset="0.789062"/><stop stop-opacity="1" stop-color="rgb(100%, 12.252808%, 45.249939%)" offset="0.796875"/><stop stop-opacity="1" stop-color="rgb(100%, 11.979675%, 45.498657%)" offset="0.804688"/><stop stop-opacity="1" stop-color="rgb(100%, 11.706543%, 45.747375%)" offset="0.8125"/><stop stop-opacity="1" stop-color="rgb(100%, 11.433411%, 45.99762%)" offset="0.820312"/><stop stop-opacity="1" stop-color="rgb(100%, 11.160278%, 46.246338%)" offset="0.828125"/><stop stop-opacity="1" stop-color="rgb(100%, 10.887146%, 46.495056%)" offset="0.835938"/><stop stop-opacity="1" stop-color="rgb(100%, 10.614014%, 46.743774%)" offset="0.84375"/><stop stop-opacity="1" stop-color="rgb(100%, 10.339355%, 46.992493%)" offset="0.851562"/><stop stop-opacity="1" stop-color="rgb(100%, 10.066223%, 47.241211%)" offset="0.859375"/><stop stop-opacity="1" stop-color="rgb(100%, 9.793091%, 47.489929%)" offset="0.867187"/><stop stop-opacity="1" stop-color="rgb(100%, 9.519958%, 47.738647%)" offset="0.875"/><stop stop-opacity="1" stop-color="rgb(100%, 9.246826%, 47.987366%)" offset="0.882812"/><stop stop-opacity="1" stop-color="rgb(100%, 8.973694%, 48.236084%)" offset="0.890625"/><stop stop-opacity="1" stop-color="rgb(100%, 8.700562%, 48.484802%)" offset="0.898438"/><stop stop-opacity="1" stop-color="rgb(100%, 8.425903%, 48.733521%)" offset="0.90625"/><stop stop-opacity="1" stop-color="rgb(100%, 8.152771%, 48.982239%)" offset="0.914062"/><stop stop-opacity="1" stop-color="rgb(100%, 7.879639%, 49.230957%)" offset="0.921875"/><stop stop-opacity="1" stop-color="rgb(100%, 7.606506%, 49.479675%)" offset="0.929688"/><stop stop-opacity="1" stop-color="rgb(100%, 7.333374%, 49.728394%)" offset="0.9375"/><stop stop-opacity="1" stop-color="rgb(100%, 7.060242%, 49.977112%)" offset="0.945312"/><stop stop-opacity="1" stop-color="rgb(100%, 6.787109%, 50.22583%)" offset="0.953125"/><stop stop-opacity="1" stop-color="rgb(100%, 6.513977%, 50.474548%)" offset="0.960937"/><stop stop-opacity="1" stop-color="rgb(100%, 6.239319%, 50.723267%)" offset="0.96875"/><stop stop-opacity="1" stop-color="rgb(100%, 5.966187%, 50.971985%)" offset="0.976562"/><stop stop-opacity="1" stop-color="rgb(100%, 5.693054%, 51.220703%)" offset="0.984375"/><stop stop-opacity="1" stop-color="rgb(100%, 5.528259%, 51.371765%)" offset="1"/></linearGradient><clipPath id="37d122f81e"><path d="M 16.503906 32.679688 L 34.367188 32.679688 L 34.367188 49.828125 L 16.503906 49.828125 Z M 16.503906 32.679688 " clip-rule="nonzero"/></clipPath><clipPath id="9ba9e5148f"><path d="M 16.503906 37 L 21 37 L 21 45 L 16.503906 45 Z M 16.503906 37 " clip-rule="nonzero"/></clipPath><clipPath id="d7243d69dd"><path d="M 29 37 L 34.367188 37 L 34.367188 45 L 29 45 Z M 29 37 " clip-rule="nonzero"/></clipPath><clipPath id="60182903f7"><path d="M 25 32.679688 L 34.367188 32.679688 L 34.367188 42 L 25 42 Z M 25 32.679688 " clip-rule="nonzero"/></clipPath><clipPath id="38d40cc594"><path d="M 16.503906 32.679688 L 26 32.679688 L 26 42 L 16.503906 42 Z M 16.503906 32.679688 " clip-rule="nonzero"/></clipPath></defs><g clip-path="url(#ddd2444239)"><path fill="#ffffff" d="M 0.496094 0 L 164.503906 0 L 164.503906 89.457031 L 0.496094 89.457031 Z M 0.496094 0 " fill-opacity="1" fill-rule="nonzero"/><path fill="#ffffff" d="M 0.496094 0 L 164.503906 0 L 164.503906 82.003906 L 0.496094 82.003906 Z M 0.496094 0 " fill-opacity="1" fill-rule="nonzero"/><path fill="#ffffff" d="M 0.496094 0 L 164.503906 0 L 164.503906 82.003906 L 0.496094 82.003906 Z M 0.496094 0 " fill-opacity="1" fill-rule="nonzero"/></g><path fill="#131313" d="M 54.789062 40.453125 L 54.789062 45.976562 L 56.976562 45.976562 L 56.976562 40.480469 C 56.976562 38.992188 57.789062 37.996094 59.144531 37.996094 C 60.65625 37.996094 61.253906 39.03125 61.253906 40.425781 L 61.253906 45.976562 L 63.449219 45.976562 L 63.449219 39.902344 C 63.449219 37.671875 62.359375 35.917969 59.855469 35.917969 C 58.355469 35.917969 57.390625 36.472656 56.4375 37.527344 C 55.878906 36.546875 54.898438 35.917969 53.402344 35.917969 C 52.621094 35.917969 51.40625 36.203125 50.460938 37.464844 L 50.460938 36.140625 L 48.320312 36.140625 L 48.320312 45.976562 L 50.515625 45.976562 L 50.515625 40.496094 C 50.515625 39.011719 51.324219 37.996094 52.683594 37.996094 C 54.195312 37.996094 54.789062 39.058594 54.789062 40.453125 Z M 67.808594 41.648438 L 67.808594 36.140625 L 65.613281 36.140625 L 65.613281 42.1875 C 65.613281 44.421875 66.835938 46.183594 69.304688 46.183594 C 70.078125 46.183594 71.363281 45.925781 72.308594 44.65625 L 72.308594 45.976562 L 74.453125 45.976562 L 74.453125 36.140625 L 72.253906 36.140625 L 72.253906 41.613281 C 72.253906 43.097656 71.375 44.105469 69.976562 44.105469 C 68.464844 44.105469 67.808594 43.042969 67.808594 41.648438 Z M 80.046875 46.148438 C 82.492188 46.148438 83.636719 44.601562 83.636719 43.082031 C 83.636719 41.675781 82.648438 40.507812 80.847656 40.121094 L 79.496094 39.832031 C 78.949219 39.714844 78.507812 39.390625 78.507812 38.8125 C 78.507812 38.148438 79.164062 37.699219 79.855469 37.699219 C 81.015625 37.699219 81.496094 38.4375 81.636719 39.074219 L 83.492188 38.554688 C 83.320312 37.609375 82.441406 35.925781 79.855469 35.925781 C 77.847656 35.925781 76.382812 37.375 76.382812 39.003906 C 76.382812 40.289062 77.191406 41.40625 78.984375 41.828125 L 80.242188 42.125 C 81.070312 42.324219 81.414062 42.675781 81.414062 43.207031 C 81.414062 43.890625 80.917969 44.359375 80.007812 44.359375 C 78.882812 44.359375 78.21875 43.628906 78.039062 42.792969 L 76.15625 43.289062 C 76.285156 44.386719 77.371094 46.148438 80.046875 46.148438 Z M 85.0625 32.945312 C 85.0625 32.144531 85.710938 31.488281 86.503906 31.488281 C 87.304688 31.488281 87.953125 32.144531 87.953125 32.945312 C 87.953125 33.746094 87.304688 34.386719 86.503906 34.386719 C 85.710938 34.386719 85.0625 33.746094 85.0625 32.945312 Z M 85.414062 45.976562 L 85.414062 36.140625 L 87.609375 36.140625 L 87.609375 45.976562 Z M 91.289062 45.976562 L 93.761719 42.550781 L 96.246094 45.976562 L 98.765625 45.976562 L 95.039062 40.964844 L 98.648438 36.140625 L 96.175781 36.140625 L 93.789062 39.398438 L 91.433594 36.140625 L 88.921875 36.140625 L 92.519531 41 L 88.785156 45.976562 Z M 106.421875 40.453125 L 106.421875 45.976562 L 108.609375 45.976562 L 108.609375 40.480469 C 108.609375 38.992188 109.417969 37.996094 110.777344 37.996094 C 112.289062 37.996094 112.882812 39.03125 112.882812 40.425781 L 112.882812 45.976562 L 115.082031 45.976562 L 115.082031 39.902344 C 115.082031 37.671875 113.992188 35.917969 111.488281 35.917969 C 109.984375 35.917969 109.023438 36.472656 108.070312 37.527344 C 107.511719 36.546875 106.53125 35.917969 105.035156 35.917969 C 104.253906 35.917969 103.039062 36.203125 102.09375 37.464844 L 102.09375 36.140625 L 99.949219 36.140625 L 99.949219 45.976562 L 102.148438 45.976562 L 102.148438 40.496094 C 102.148438 39.011719 102.957031 37.996094 104.316406 37.996094 C 105.828125 37.996094 106.421875 39.058594 106.421875 40.453125 Z M 116.6875 41.046875 C 116.6875 43.691406 118.683594 46.132812 121.527344 46.132812 C 122.3125 46.132812 123.984375 45.746094 124.796875 44.484375 L 124.796875 45.976562 L 126.964844 45.976562 L 126.964844 36.140625 L 124.796875 36.140625 L 124.796875 37.570312 C 123.984375 36.355469 122.449219 35.941406 121.582031 35.941406 C 118.503906 35.941406 116.6875 38.5625 116.6875 41.046875 Z M 124.804688 41.046875 C 124.804688 42.730469 123.636719 44.140625 121.851562 44.140625 C 120.082031 44.140625 118.902344 42.738281 118.902344 41.046875 C 118.902344 39.335938 120.070312 37.933594 121.851562 37.933594 C 123.636719 37.933594 124.804688 39.335938 124.804688 41.046875 Z M 134.910156 38.113281 L 134.910156 36.140625 L 132.40625 36.140625 L 132.40625 33.089844 L 130.21875 33.089844 L 130.21875 36.140625 L 128.3125 36.140625 L 128.3125 38.113281 L 130.21875 38.113281 L 130.21875 42.925781 C 130.21875 45.320312 131.308594 46.066406 133.242188 46.066406 C 133.511719 46.066406 134.214844 46.050781 134.820312 45.871094 L 134.820312 44.007812 C 134.394531 44.0625 134.125 44.078125 133.925781 44.078125 C 132.828125 44.078125 132.40625 43.65625 132.40625 42.808594 L 132.40625 38.113281 Z M 140.945312 46.148438 C 143.625 46.148438 145.148438 44.421875 145.585938 42.925781 L 143.582031 42.277344 C 143.292969 43.035156 142.671875 44.152344 140.988281 44.152344 C 139.316406 44.152344 138.074219 42.835938 138.074219 41 C 138.074219 39.136719 139.367188 37.921875 140.96875 37.921875 C 142.597656 37.921875 143.320312 38.992188 143.542969 39.757812 L 145.535156 39.109375 C 145.121094 37.445312 143.417969 35.933594 140.980469 35.933594 C 138.046875 35.933594 135.824219 38.230469 135.824219 41.039062 C 135.824219 43.933594 138.046875 46.148438 140.945312 46.148438 Z M 153.800781 40.46875 L 153.800781 45.976562 L 155.996094 45.976562 L 155.996094 39.921875 C 155.996094 37.679688 154.808594 35.933594 152.308594 35.933594 C 151.53125 35.933594 150.300781 36.1875 149.355469 37.382812 L 149.355469 30.964844 L 147.160156 30.964844 L 147.160156 45.976562 L 149.355469 45.976562 L 149.355469 40.496094 C 149.355469 39.011719 150.238281 38.011719 151.632812 38.011719 C 153.144531 38.011719 153.800781 39.066406 153.800781 40.46875 Z M 153.800781 40.46875 " fill-opacity="1" fill-rule="evenodd"/><g clip-path="url(#c389a41267)"><g clip-path="url(#6bff5b7a54)"><path fill="url(#6ec686e602)" d="M 8.699219 24.226562 L 8.699219 57.773438 L 42.242188 57.773438 L 42.242188 24.226562 Z M 8.699219 24.226562 " fill-rule="nonzero"/></g></g><g clip-path="url(#37d122f81e)"><path fill="#ffffff" d="M 31.472656 33.121094 C 31.472656 33.121094 27.480469 36.199219 25.488281 37.738281 C 25.46875 37.753906 25.433594 37.78125 25.433594 37.78125 L 19.34375 33.160156 C 19.007812 32.898438 18.617188 32.78125 18.234375 32.78125 C 17.347656 32.78125 16.503906 33.414062 16.503906 34.347656 L 16.503906 48.265625 C 16.503906 49.195312 17.34375 49.828125 18.234375 49.828125 C 18.617188 49.828125 19.007812 49.710938 19.34375 49.449219 L 25.433594 44.789062 C 28.46875 47.144531 31.46875 49.449219 31.46875 49.449219 C 31.804688 49.710938 32.195312 49.828125 32.578125 49.828125 C 33.464844 49.828125 34.367188 49.195312 34.367188 48.265625 L 34.367188 34.273438 C 34.367188 33.34375 33.46875 32.742188 32.578125 32.742188 C 32.199219 32.742188 31.808594 32.859375 31.472656 33.121094 Z M 31.472656 33.121094 " fill-opacity="0.702" fill-rule="evenodd"/></g><path fill="#ffffff" d="M 20.964844 41.292969 L 25.433594 44.789062 L 29.878906 41.289062 L 25.433594 37.78125 Z M 20.964844 41.292969 " fill-opacity="0.6" fill-rule="evenodd"/><g clip-path="url(#9ba9e5148f)"><path fill="#ffffff" d="M 16.507812 37.835938 L 16.507812 44.746094 L 20.964844 41.292969 Z M 16.507812 37.835938 " fill-opacity="0.6" fill-rule="evenodd"/></g><g clip-path="url(#d7243d69dd)"><path fill="#ffffff" d="M 29.878906 41.289062 L 34.367188 44.789062 L 34.367188 37.78125 Z M 29.878906 41.289062 " fill-opacity="0.6" fill-rule="evenodd"/></g><g clip-path="url(#60182903f7)"><path fill="#ffffff" d="M 31.390625 33.179688 L 25.433594 37.78125 L 29.878906 41.289062 L 34.367188 37.78125 L 34.367188 34.273438 C 34.367188 32.945312 32.664062 32.085938 31.390625 33.179688 Z M 31.390625 33.179688 " fill-opacity="1" fill-rule="evenodd"/></g><g clip-path="url(#38d40cc594)"><path fill="#ffffff" d="M 19.347656 33.132812 C 18.230469 32.265625 16.507812 32.984375 16.507812 34.316406 L 16.507812 37.835938 L 20.964844 41.292969 L 25.433594 37.78125 Z M 19.347656 33.132812 " fill-opacity="1" fill-rule="evenodd"/></g></svg>