<svg width="4868" height="1816" viewBox="0 0 4868 1816" fill="none" xmlns="http://www.w3.org/2000/svg">
<path d="M4188.21 1128.75C4261.81 1128.75 4330.39 1098.64 4341.26 1051.81C4344.61 1081.92 4361.33 1104.5 4385.59 1116.2C4407.33 1127.08 4434.1 1128.75 4460.02 1118.71V1043.44C4449.15 1045.95 4437.44 1046.79 4428.24 1039.26C4419.04 1031.73 4412.35 1015.01 4412.35 984.064V836.032C4412.35 744.871 4343.77 688 4224.18 688C4120.47 688 4041.85 730.653 4031.82 795.051L4112.11 818.469C4118.8 785.852 4158.1 763.27 4219.16 763.27C4277.7 763.27 4323.7 782.506 4323.7 814.287C4323.7 844.395 4281.88 858.613 4178.18 866.14C4079.49 873.667 4019.27 921.338 4019.27 998.281C4019.27 1074.39 4078.65 1128.75 4188.21 1128.75ZM4188.21 1054.32C4138.87 1054.32 4108.76 1033.41 4108.76 999.118C4108.76 966.5 4137.2 943.919 4183.19 940.574C4260.97 935.556 4308.65 926.356 4324.54 907.957C4324.54 996.609 4267.66 1054.32 4188.21 1054.32Z" fill="#6A4BB2"/>
<path d="M3766.14 690.79C3701.28 690.79 3642.66 721.374 3613.75 768.427C3591.08 719.022 3539.5 691.574 3484.01 690.79C3428.53 690.79 3381.64 719.021 3356.63 763.722V702.553H3272.22V1117.88H3358.19V890.764C3358.19 818.617 3401.96 771.564 3464.48 771.564C3523.87 771.564 3561.38 815.48 3561.38 888.412V1117.88H3647.35V889.196C3647.35 817.832 3690.34 771.564 3752.86 771.564C3811.47 771.564 3848.98 812.343 3848.98 886.843V1117.88H3934.95V872.727C3934.95 817.048 3919.32 772.348 3888.06 740.195C3857.58 707.258 3816.94 690.79 3766.14 690.79Z" fill="#6A4BB2"/>
<path d="M1828.97 1128.75C1962.79 1128.75 2053.11 1038.43 2053.11 905.448C2053.11 773.306 1964.46 688.836 1828.97 688.836C1693.49 688.836 1604 774.143 1604 905.448C1604 1038.43 1696 1128.75 1828.97 1128.75ZM1828.97 1048.46C1748.69 1048.46 1693.49 989.082 1693.49 905.448C1693.49 822.65 1747.01 769.125 1828.97 769.125C1911.77 769.125 1963.63 822.65 1963.63 905.448C1963.63 989.918 1909.26 1048.46 1828.97 1048.46Z" fill="#6A4BB2"/>
<path d="M2448.54 688C2379.13 688 2319.75 716.435 2282.95 764.107V693.854H2155.83V766.616H2281.28C2256.19 800.069 2241.97 842.722 2241.97 892.066V1045.12H2158.34V1117.88H2441.02V1045.12H2332.29V889.557C2332.29 822.65 2383.31 772.47 2448.54 772.47C2501.23 772.47 2535.52 806.76 2545.56 849.413L2627.52 820.141C2609.96 740.689 2543.05 688 2448.54 688Z" fill="#6A4BB2"/>
<path d="M2892.85 1128.75C2966.45 1128.75 3035.03 1098.64 3045.9 1051.81C3049.24 1081.92 3065.97 1104.5 3090.22 1116.2C3111.97 1127.08 3138.73 1128.75 3164.66 1118.71V1043.44C3153.79 1045.95 3142.08 1046.79 3132.88 1039.26C3123.68 1031.73 3116.99 1015.01 3116.99 984.064V836.032C3116.99 744.871 3048.41 688 2928.81 688C2825.11 688 2746.49 730.653 2736.45 795.051L2816.74 818.469C2823.43 785.852 2862.74 763.27 2923.79 763.27C2982.34 763.27 3028.34 782.506 3028.34 814.287C3028.34 844.395 2986.52 858.613 2882.81 866.14C2784.12 873.667 2723.91 921.338 2723.91 998.281C2723.91 1074.39 2783.29 1128.75 2892.85 1128.75ZM2892.85 1054.32C2843.5 1054.32 2813.4 1033.41 2813.4 999.118C2813.4 966.5 2841.83 943.919 2887.83 940.574C2965.61 935.556 3013.28 926.356 3029.17 907.957C3029.17 996.609 2972.3 1054.32 2892.85 1054.32Z" fill="#6A4BB2"/>
<g clip-path="url(#clip0_201_3132)">
<path fill-rule="evenodd" clip-rule="evenodd" d="M912.724 663.395C949.204 630.998 999.654 614.618 1048.41 616.869C1076.25 618.154 1101.23 625.292 1121.79 637.121C1139.56 646.65 1157.39 664.137 1172.08 684.596C1197.96 707.189 1236.86 709.972 1266.05 689.145C1300.17 664.795 1308.1 617.393 1283.75 583.27C1228.56 505.93 1140.94 469.171 1055.41 465.223C969.986 461.279 879.524 489.384 811.01 550.698C810.781 550.903 810.553 551.11 810.327 551.317C674.667 673.246 663.109 882.186 784.899 1018.28C812.855 1049.51 860.841 1052.18 892.079 1024.22C923.317 996.264 925.978 948.278 898.022 917.04C832.016 843.284 838.358 729.901 912.156 663.908C912.347 663.738 912.536 663.567 912.724 663.395Z" fill="url(#paint0_linear_201_3132)"/>
<mask id="mask0_201_3132" style="mask-type:alpha" maskUnits="userSpaceOnUse" x="700" y="464" width="598" height="580">
<path fill-rule="evenodd" clip-rule="evenodd" d="M912.737 663.384C949.215 630.994 999.66 614.617 1048.41 616.868C1076.25 618.153 1101.23 625.291 1121.79 637.12C1139.56 646.649 1157.39 664.136 1172.08 684.595C1197.96 707.188 1236.86 709.971 1266.05 689.144C1300.17 664.794 1308.1 617.392 1283.75 583.269C1228.56 505.929 1140.94 469.17 1055.41 465.222C969.987 461.278 879.524 489.383 811.011 550.697C810.776 550.907 810.543 551.118 810.312 551.331C674.666 673.262 663.114 882.191 784.899 1018.28C812.855 1049.51 860.841 1052.18 892.079 1024.22C923.317 996.264 925.978 948.278 898.022 917.04C832.016 843.284 838.358 729.901 912.156 663.908C912.351 663.734 912.544 663.559 912.737 663.384Z" fill="url(#paint1_linear_201_3132)"/>
</mask>
<g mask="url(#mask0_201_3132)">
<g style="mix-blend-mode:multiply">
<path d="M815.442 488.439L557.579 740.589L1028.79 813.837L1218.43 664.952V565.084L815.442 488.439Z" fill="url(#paint2_linear_201_3132)"/>
</g>
</g>
<path fill-rule="evenodd" clip-rule="evenodd" d="M681.479 543.438C709.422 574.687 706.742 622.672 675.493 650.615C532.647 778.349 520.409 997.651 648.15 1140.51C676.093 1171.76 673.413 1219.74 642.164 1247.68C610.915 1275.63 562.93 1272.95 534.987 1241.7C351.367 1036.35 368.949 721.08 574.302 537.452C605.551 509.509 653.536 512.189 681.479 543.438Z" fill="url(#paint3_linear_201_3132)"/>
<path fill-rule="evenodd" clip-rule="evenodd" d="M540.973 1134.52C572.222 1106.58 620.207 1109.26 648.15 1140.51C775.884 1283.35 995.187 1295.59 1138.04 1167.85C1169.29 1139.91 1217.28 1142.59 1245.22 1173.84C1273.16 1205.09 1270.48 1253.07 1239.23 1281.01C1033.89 1464.63 718.615 1447.05 534.987 1241.7C507.044 1210.45 509.724 1162.46 540.973 1134.52Z" fill="url(#paint4_linear_201_3132)"/>
<path fill-rule="evenodd" clip-rule="evenodd" d="M1225.41 624.307C1261.63 603.199 1308.1 615.449 1329.21 651.667C1444.34 849.208 1421.43 1118.1 1239.31 1281C1208.06 1308.94 1160.08 1306.27 1132.13 1275.02C1104.18 1243.78 1106.86 1195.79 1138.1 1167.85C1260.61 1058.27 1281 870.432 1198.05 728.106C1176.95 691.888 1189.19 645.415 1225.41 624.307Z" fill="url(#paint5_linear_201_3132)"/>
<mask id="mask1_201_3132" style="mask-type:alpha" maskUnits="userSpaceOnUse" x="1112" y="613" width="288" height="688">
<path fill-rule="evenodd" clip-rule="evenodd" d="M1225.41 624.307C1261.63 603.199 1308.1 615.448 1329.21 651.667C1444.34 849.207 1421.43 1118.09 1239.31 1281C1208.06 1308.94 1160.08 1306.27 1132.13 1275.02C1104.18 1243.78 1106.86 1195.79 1138.1 1167.84C1260.61 1058.27 1281 870.431 1198.05 728.106C1176.95 691.887 1189.19 645.415 1225.41 624.307Z" fill="url(#paint6_linear_201_3132)"/>
</mask>
<g mask="url(#mask1_201_3132)">
<g style="mix-blend-mode:multiply">
<path d="M1195.2 935.842L941.304 1200.63L1313.47 1306.54L1473.04 922.67L1262.78 465.414L1244.01 847.401L1195.2 935.842Z" fill="url(#paint7_linear_201_3132)"/>
</g>
</g>
<path fill-rule="evenodd" clip-rule="evenodd" d="M1240.67 536.021L1262.87 560.579L1285.12 585.137C1284.57 584.313 1283.99 583.46 1283.37 582.583L1285.41 584.781C1284.49 583.564 1282.79 581.442 1280.54 578.714C1270.38 565.239 1254.2 547.694 1240.67 536.021Z" fill="#F97CBF"/>
<path fill-rule="evenodd" clip-rule="evenodd" d="M790.933 911.08C822.182 883.137 870.167 885.816 898.111 917.065C964.103 990.864 1077.49 997.206 1151.24 931.199C1182.48 903.244 1230.47 905.905 1258.42 937.143C1286.38 968.381 1283.72 1016.37 1252.48 1044.32C1116.18 1166.3 906.796 1154.52 784.948 1018.26C757.005 987.009 759.685 939.024 790.933 911.08Z" fill="url(#paint8_linear_201_3132)"/>
<path fill-rule="evenodd" clip-rule="evenodd" d="M1278.53 576.74C1250.57 545.502 1202.59 542.841 1171.35 570.796C1144.3 595.004 1138.68 634.23 1155.81 664.596C1165.23 674.777 1174 686.496 1181.49 698.82C1229.72 771.785 1218.42 871.063 1151.27 931.108C1120.02 959.051 1117.34 1007.04 1145.29 1038.29C1173.23 1069.53 1221.21 1072.21 1252.46 1044.27C1388.72 922.423 1400.51 713.043 1278.53 576.74Z" fill="url(#paint9_linear_201_3132)"/>
<path fill-rule="evenodd" clip-rule="evenodd" d="M1149.47 658.088C1042.39 532.866 817.656 523.57 675.497 650.69C644.248 678.633 596.263 675.953 568.32 644.704C540.376 613.455 543.056 565.47 574.306 537.527C775.122 357.955 1118.29 357.951 1283.16 582.519C1307.96 616.311 1300.68 663.815 1266.89 688.623C1237.74 710.019 1198.4 707.544 1172.21 684.781C1165.23 675.034 1157.54 665.957 1149.47 658.088Z" fill="url(#paint10_linear_201_3132)"/>
</g>
<defs>
<linearGradient id="paint0_linear_201_3132" x1="820.116" y1="910.363" x2="871.279" y2="581.461" gradientUnits="userSpaceOnUse">
<stop stop-color="#F6D25B"/>
<stop offset="1" stop-color="#F8B580"/>
</linearGradient>
<linearGradient id="paint1_linear_201_3132" x1="820.116" y1="910.363" x2="871.279" y2="581.46" gradientUnits="userSpaceOnUse">
<stop stop-color="#F6D25B"/>
<stop offset="1" stop-color="#F8B580"/>
</linearGradient>
<linearGradient id="paint2_linear_201_3132" x1="1049.43" y1="426.414" x2="754.751" y2="766.59" gradientUnits="userSpaceOnUse">
<stop stop-color="#895200"/>
<stop offset="0.833333" stop-color="#E28800" stop-opacity="0"/>
</linearGradient>
<linearGradient id="paint3_linear_201_3132" x1="554.401" y1="594.033" x2="590.876" y2="1127.83" gradientUnits="userSpaceOnUse">
<stop stop-color="#ED51F2"/>
<stop offset="1" stop-color="#B771F2"/>
</linearGradient>
<linearGradient id="paint4_linear_201_3132" x1="553.339" y1="1158.87" x2="1119.35" y2="1192.96" gradientUnits="userSpaceOnUse">
<stop stop-color="#B971F3"/>
<stop offset="1" stop-color="#8F6FDE"/>
</linearGradient>
<linearGradient id="paint5_linear_201_3132" x1="1258.65" y1="734.396" x2="1170.99" y2="1253.17" gradientUnits="userSpaceOnUse">
<stop stop-color="#6A4BB2"/>
<stop offset="1" stop-color="#9170E0"/>
</linearGradient>
<linearGradient id="paint6_linear_201_3132" x1="1258.65" y1="687.436" x2="1156.33" y2="1246.57" gradientUnits="userSpaceOnUse">
<stop stop-color="#6A4BB2"/>
<stop offset="1" stop-color="#9170E0"/>
</linearGradient>
<linearGradient id="paint7_linear_201_3132" x1="1133.25" y1="901.97" x2="1265.16" y2="1180.22" gradientUnits="userSpaceOnUse">
<stop stop-color="#542DA7"/>
<stop offset="0.833333" stop-color="#5F2EAF" stop-opacity="0"/>
</linearGradient>
<linearGradient id="paint8_linear_201_3132" x1="860.316" y1="914.015" x2="1119.78" y2="987.104" gradientUnits="userSpaceOnUse">
<stop stop-color="#F6D25B"/>
<stop offset="1" stop-color="#F9A38F"/>
</linearGradient>
<linearGradient id="paint9_linear_201_3132" x1="1233.5" y1="711.379" x2="1244.41" y2="987.688" gradientUnits="userSpaceOnUse">
<stop stop-color="#FA80B7"/>
<stop offset="1" stop-color="#F8A48D"/>
</linearGradient>
<linearGradient id="paint10_linear_201_3132" x1="644.701" y1="574.152" x2="1203.84" y2="603.388" gradientUnits="userSpaceOnUse">
<stop stop-color="#E755F3"/>
<stop offset="1" stop-color="#F97FB6"/>
</linearGradient>
<clipPath id="clip0_201_3132">
<rect width="992" height="1000" fill="white" transform="translate(408 408)"/>
</clipPath>
</defs>
</svg>
