<?xml version="1.0" encoding="UTF-8"?><svg xmlns="http://www.w3.org/2000/svg" viewBox="0 0 623.62 255.12"><defs><style>.c{fill:#fff;}.d{fill:#f22f46;}</style></defs><g id="a"><rect class="c" y="0" width="623.62" height="255.12"/></g><g id="b"><g><path class="d" d="M432.93,73.04h-30.41c-.45,0-.83,.16-1.13,.46-.32,.32-.46,.7-.48,1.13v18.35c.02,.45,.16,.81,.48,1.13s.68,.46,1.13,.46h30.41c.45,0,.81-.16,1.13-.46,.3-.32,.46-.68,.46-1.13v-18.35c0-.43-.16-.81-.46-1.13-.32-.3-.68-.46-1.13-.46"/><path class="d" d="M266.15,155.18c-5.35,0-8.15-2.24-8.15-8.32v-20.5h17.07c.45,0,.81-.16,1.13-.48s.46-.68,.46-1.13v-19.24l22.45,75.01c.33,.97,1.02,1.48,2.04,1.53h24.82c1.02-.05,1.72-.56,2.07-1.53l10.63-33.23,5.41,17.38,4.93,15.85c.35,.97,1.03,1.48,2.07,1.53h24.97c1.02-.05,1.7-.56,2.05-1.53l22.79-75.23v75.19c0,.45,.14,.83,.46,1.13,.32,.32,.68,.48,1.13,.48h30.44c.45,0,.81-.16,1.13-.48s.46-.68,.46-1.13V101.97c0-.45-.16-.83-.46-1.13-.32-.32-.68-.48-1.13-.48h-60.66c-1.03,.05-1.69,.56-1.99,1.54l-7.78,29.88-.41,1.54-9.47-31.73c-.33-.99-1.02-1.5-2.05-1.54h-23.63c-1.02,.05-1.7,.56-2.04,1.54l-8.88,29.92-.45,1.53-.4-1.54-7.51-29.6c-.29-.99-.95-1.5-1.97-1.54h-47.69v-25.65c0-.54-.22-.97-.65-1.29s-.91-.4-1.42-.24l-29.66,9.28c-.56,.18-1.02,.49-1.37,.97s-.53,1.02-.53,1.62v15.31h-7.89c-.45,0-.81,.16-1.13,.48s-.46,.68-.46,1.13v22.79c0,.45,.16,.83,.46,1.13,.32,.32,.68,.48,1.13,.48h7.89v27.91c0,19.76,10.66,28.98,30.52,28.98,7.65,0,15.2-1.59,20.51-4.12,.65-.33,.97-.86,.95-1.59v-22.36c0-.25-.05-.51-.18-.73-.13-.24-.29-.43-.51-.57-.21-.14-.45-.24-.7-.27-.27-.03-.51,0-.76,.1-2.59,.97-5.28,1.46-8.07,1.48Z"/><path class="d" d="M473,73.04c.45,0,.81,.16,1.13,.46,.3,.32,.46,.7,.46,1.13v105.87c0,.43-.16,.81-.46,1.11-.32,.32-.7,.48-1.13,.48h-30.44c-.45,0-.81-.16-1.13-.46-.3-.32-.46-.7-.46-1.13V74.63c0-.43,.16-.81,.46-1.11,.32-.32,.68-.48,1.13-.48h30.44Z"/><path class="d" d="M513.03,73.04c.43,0,.81,.16,1.13,.46,.3,.32,.46,.7,.46,1.13v18.35c0,.45-.16,.81-.48,1.13s-.68,.46-1.11,.46h-30.44c-.45,0-.81-.16-1.13-.46-.32-.32-.46-.68-.46-1.13v-18.35c0-.43,.14-.81,.46-1.13s.68-.46,1.13-.46h30.44Z"/><path class="d" d="M513.03,100.37c.43,0,.81,.16,1.13,.48s.46,.68,.46,1.13v78.51c0,.45-.16,.83-.46,1.13-.32,.32-.7,.48-1.13,.48h-30.44c-.45,0-.83-.16-1.13-.48-.32-.3-.46-.68-.46-1.13V101.97c0-.45,.14-.83,.46-1.13,.3-.32,.68-.48,1.13-.48h30.44Z"/><path class="d" d="M563.41,98.44c-26.67,0-45.64,19.6-45.64,42.47v.3c0,22.88,18.82,42.18,45.34,42.18s45.64-19.6,45.64-42.49v-.29c0-22.88-18.82-42.18-45.34-42.18m13.03,42.77c0,7.73-5.47,14.11-13.03,14.11s-13.33-6.38-13.33-14.42v-.29c0-7.73,5.47-14.11,13.03-14.11s13.33,6.38,13.33,14.4v.3Z"/><path class="d" d="M104.22,37.97c-2.93,0-5.84,.14-8.75,.43-2.91,.3-5.81,.73-8.67,1.3-2.88,.57-5.71,1.27-8.51,2.13-2.8,.84-5.55,1.83-8.26,2.96-2.71,1.11-5.35,2.37-7.92,3.76s-5.09,2.9-7.51,4.52c-2.43,1.64-4.79,3.37-7.05,5.24s-4.42,3.83-6.49,5.9c-2.07,2.08-4.04,4.25-5.89,6.52-1.86,2.26-3.6,4.61-5.24,7.05-1.62,2.45-3.12,4.96-4.5,7.54-1.38,2.59-2.63,5.24-3.76,7.96-1.11,2.71-2.1,5.46-2.94,8.27-.86,2.8-1.56,5.65-2.13,8.53s-1,5.78-1.29,8.69c-.29,2.93-.43,5.86-.43,8.78s.14,5.86,.43,8.78c.29,2.91,.72,5.81,1.29,8.69s1.27,5.73,2.13,8.53c.84,2.82,1.83,5.57,2.96,8.27,1.11,2.72,2.36,5.36,3.74,7.96,1.38,2.58,2.88,5.09,4.5,7.54,1.64,2.43,3.37,4.79,5.24,7.05,1.85,2.28,3.82,4.44,5.89,6.52,2.07,2.07,4.23,4.04,6.49,5.9s4.61,3.6,7.05,5.24c2.43,1.62,4.93,3.13,7.51,4.52s5.24,2.64,7.92,3.76c2.71,1.13,5.46,2.12,8.26,2.96,2.8,.86,5.63,1.58,8.51,2.13,2.86,.57,5.76,1,8.67,1.3,2.91,.29,5.82,.43,8.75,.43s5.86-.14,8.77-.43c2.91-.3,5.79-.73,8.67-1.3,2.86-.56,5.7-1.27,8.5-2.13,2.8-.84,5.55-1.83,8.26-2.96,2.71-1.11,5.35-2.37,7.92-3.76s5.09-2.9,7.53-4.52c2.43-1.64,4.77-3.37,7.05-5.24,2.26-1.86,4.42-3.83,6.49-5.9,2.07-2.08,4.03-4.25,5.89-6.52,1.86-2.26,3.6-4.61,5.22-7.05,1.62-2.45,3.13-4.96,4.5-7.54,1.38-2.59,2.64-5.24,3.76-7.96,1.11-2.71,2.1-5.46,2.96-8.27,.84-2.8,1.56-5.65,2.13-8.53,.56-2.88,.99-5.78,1.27-8.69,.29-2.93,.43-5.86,.43-8.78s-.14-5.86-.43-8.78c-.29-2.91-.72-5.82-1.27-8.69-.57-2.88-1.29-5.73-2.13-8.53-.86-2.82-1.85-5.57-2.96-8.29-1.11-2.71-2.37-5.35-3.76-7.94-1.37-2.59-2.88-5.09-4.5-7.54-1.62-2.43-3.37-4.79-5.22-7.05-1.86-2.28-3.82-4.44-5.89-6.52-2.07-2.07-4.23-4.04-6.51-5.9-2.26-1.86-4.6-3.6-7.03-5.24-2.43-1.62-4.95-3.13-7.53-4.52s-5.22-2.64-7.92-3.76c-2.71-1.13-5.46-2.12-8.26-2.96-2.8-.86-5.63-1.56-8.5-2.13-2.88-.57-5.78-1-8.69-1.3-2.91-.29-5.82-.43-8.75-.43m0,155.56c-2.15,0-4.3-.11-6.44-.32s-4.28-.53-6.4-.95c-2.1-.41-4.2-.94-6.25-1.58-2.07-.62-4.09-1.35-6.08-2.18-2-.83-3.95-1.75-5.84-2.77-1.91-1.02-3.76-2.12-5.54-3.33-1.8-1.19-3.53-2.48-5.19-3.85-1.67-1.37-3.26-2.82-4.79-4.34s-2.98-3.13-4.33-4.81c-1.37-1.67-2.66-3.41-3.85-5.2s-2.31-3.64-3.33-5.55c-1.02-1.89-1.93-3.85-2.75-5.84-.83-2-1.56-4.04-2.18-6.09-.62-2.07-1.15-4.17-1.58-6.29-.41-2.12-.73-4.25-.94-6.41-.21-2.15-.32-4.3-.32-6.46s.11-4.31,.32-6.46c.21-2.15,.53-4.3,.94-6.41,.43-2.12,.95-4.22,1.58-6.29,.62-2.05,1.35-4.09,2.18-6.09,.83-1.99,1.73-3.95,2.75-5.84,1.02-1.91,2.13-3.76,3.33-5.55s2.48-3.53,3.85-5.2,2.8-3.28,4.33-4.81,3.12-2.98,4.79-4.34,3.39-2.66,5.19-3.85c1.78-1.21,3.63-2.31,5.54-3.33,1.89-1.02,3.85-1.94,5.84-2.77s4.01-1.56,6.08-2.18c2.05-.64,4.15-1.16,6.27-1.58,2.1-.43,4.23-.75,6.38-.95s4.3-.32,6.44-.32,4.31,.11,6.46,.32c2.13,.21,4.26,.53,6.38,.95,2.12,.41,4.2,.94,6.27,1.58,2.05,.62,4.09,1.35,6.08,2.18s3.93,1.75,5.84,2.77c1.89,1.02,3.74,2.12,5.54,3.33,1.78,1.19,3.52,2.48,5.19,3.85,1.65,1.37,3.26,2.82,4.77,4.34,1.53,1.53,2.98,3.13,4.34,4.81s2.64,3.41,3.85,5.2c1.19,1.78,2.31,3.64,3.31,5.55,1.02,1.89,1.94,3.85,2.77,5.84,.83,2,1.54,4.03,2.18,6.09,.62,2.07,1.15,4.17,1.56,6.29,.43,2.12,.73,4.25,.95,6.4,.21,2.16,.32,4.31,.32,6.48s-.11,4.31-.32,6.46c-.22,2.15-.53,4.3-.95,6.41-.41,2.12-.94,4.2-1.56,6.27-.64,2.07-1.35,4.11-2.18,6.09-.83,2-1.75,3.96-2.77,5.86-1,1.91-2.12,3.76-3.31,5.55-1.21,1.8-2.48,3.53-3.85,5.2s-2.82,3.28-4.34,4.81c-1.51,1.53-3.12,2.98-4.77,4.34-1.67,1.37-3.41,2.66-5.19,3.85-1.8,1.21-3.64,2.31-5.54,3.33-1.91,1.02-3.85,1.94-5.84,2.77s-4.03,1.56-6.08,2.18c-2.07,.64-4.15,1.16-6.27,1.58-2.12,.43-4.25,.75-6.4,.95-2.13,.21-4.28,.32-6.44,.32"/><path class="d" d="M107.9,105.25c0-1.23,.11-2.43,.35-3.63,.24-1.21,.59-2.37,1.07-3.5,.46-1.13,1.03-2.21,1.72-3.23,.67-1,1.45-1.96,2.31-2.82s1.8-1.64,2.82-2.32c1.02-.67,2.08-1.24,3.21-1.72,1.13-.46,2.29-.81,3.48-1.05s2.4-.37,3.63-.37,2.42,.13,3.61,.37c1.21,.24,2.37,.59,3.48,1.05,1.13,.48,2.21,1.05,3.21,1.72,1.02,.68,1.96,1.46,2.82,2.32s1.64,1.8,2.31,2.82c.68,1.02,1.26,2.1,1.72,3.23,.48,1.13,.83,2.29,1.07,3.48,.24,1.21,.35,2.42,.35,3.64s-.11,2.43-.35,3.63-.59,2.37-1.07,3.5c-.46,1.13-1.03,2.2-1.72,3.21-.67,1.02-1.45,1.96-2.31,2.82-.86,.88-1.8,1.64-2.82,2.32s-2.08,1.26-3.21,1.72c-1.13,.48-2.29,.83-3.48,1.07s-2.4,.35-3.63,.35-2.42-.11-3.61-.35c-1.21-.24-2.37-.59-3.48-1.07-1.13-.46-2.2-1.03-3.21-1.72s-1.96-1.45-2.82-2.31c-.86-.88-1.64-1.81-2.31-2.83-.68-1.02-1.26-2.08-1.72-3.21-.48-1.13-.83-2.29-1.07-3.5-.24-1.19-.35-2.4-.35-3.63"/><path class="d" d="M107.9,149.87c0-1.23,.11-2.43,.35-3.63,.24-1.21,.59-2.37,1.07-3.5,.46-1.13,1.03-2.21,1.72-3.21,.67-1.02,1.45-1.97,2.31-2.83s1.8-1.64,2.82-2.31c1.02-.68,2.08-1.26,3.21-1.73,1.13-.46,2.29-.81,3.48-1.05s2.4-.37,3.63-.37,2.42,.13,3.61,.37c1.21,.24,2.37,.59,3.48,1.05,1.13,.48,2.21,1.05,3.21,1.72,1.02,.68,1.96,1.46,2.82,2.32s1.64,1.8,2.31,2.82c.68,1.02,1.26,2.1,1.72,3.23,.48,1.13,.83,2.29,1.07,3.48,.24,1.21,.35,2.42,.35,3.64s-.11,2.43-.35,3.63c-.24,1.21-.59,2.37-1.07,3.5-.46,1.13-1.03,2.2-1.72,3.21-.67,1.02-1.45,1.96-2.31,2.83-.86,.86-1.8,1.62-2.82,2.31s-2.08,1.26-3.21,1.72c-1.13,.48-2.29,.83-3.48,1.07s-2.4,.37-3.63,.37-2.42-.13-3.61-.37c-1.21-.24-2.37-.59-3.48-1.07-1.13-.46-2.2-1.03-3.21-1.72-1.02-.67-1.96-1.45-2.82-2.31-.86-.88-1.64-1.81-2.31-2.83-.68-1.02-1.26-2.08-1.72-3.21-.48-1.13-.83-2.29-1.07-3.5-.24-1.19-.35-2.4-.35-3.63"/><path class="d" d="M63.39,149.87c0-1.23,.13-2.43,.35-3.63,.24-1.21,.6-2.37,1.07-3.5s1.03-2.21,1.72-3.21c.67-1.02,1.45-1.97,2.31-2.83s1.8-1.64,2.82-2.31c1.02-.68,2.08-1.26,3.21-1.73,1.13-.46,2.29-.81,3.48-1.05s2.4-.37,3.63-.37,2.42,.13,3.61,.37c1.21,.24,2.37,.59,3.5,1.05,1.11,.48,2.2,1.05,3.2,1.72,1.02,.68,1.96,1.46,2.82,2.32,.88,.86,1.64,1.8,2.32,2.82,.67,1.02,1.24,2.1,1.7,3.23,.48,1.13,.83,2.29,1.07,3.48,.24,1.21,.35,2.42,.35,3.64s-.11,2.43-.35,3.63c-.24,1.21-.59,2.37-1.07,3.5-.46,1.13-1.03,2.2-1.7,3.21-.68,1.02-1.45,1.96-2.32,2.83s-1.8,1.62-2.82,2.31c-1,.68-2.08,1.26-3.21,1.72-1.11,.48-2.28,.83-3.48,1.07-1.19,.24-2.4,.37-3.63,.37s-2.42-.13-3.61-.37-2.36-.59-3.48-1.07c-1.13-.46-2.2-1.03-3.21-1.72-1.02-.67-1.96-1.45-2.82-2.31-.86-.88-1.64-1.81-2.31-2.83-.68-1.02-1.26-2.08-1.72-3.21s-.83-2.29-1.07-3.5c-.22-1.19-.35-2.4-.35-3.63"/><path class="d" d="M63.39,105.25c0-1.23,.13-2.43,.35-3.63,.24-1.21,.6-2.37,1.07-3.5s1.03-2.21,1.72-3.23c.67-1,1.45-1.96,2.31-2.82s1.8-1.64,2.82-2.32c1.02-.67,2.08-1.24,3.21-1.72,1.13-.46,2.29-.81,3.48-1.05s2.4-.37,3.63-.37,2.42,.13,3.61,.37c1.21,.24,2.37,.59,3.5,1.05,1.11,.48,2.2,1.05,3.2,1.72,1.02,.68,1.96,1.46,2.82,2.32,.88,.86,1.64,1.8,2.32,2.82,.67,1.02,1.24,2.1,1.7,3.23,.48,1.13,.83,2.29,1.07,3.48,.24,1.21,.35,2.42,.35,3.64s-.11,2.43-.35,3.63c-.24,1.21-.59,2.37-1.07,3.5-.46,1.13-1.03,2.2-1.7,3.21-.68,1.02-1.45,1.96-2.32,2.83s-1.8,1.62-2.82,2.31c-1,.68-2.08,1.26-3.21,1.72-1.11,.48-2.28,.83-3.48,1.07-1.19,.24-2.4,.35-3.63,.35s-2.42-.11-3.61-.35-2.36-.59-3.48-1.07c-1.13-.46-2.2-1.03-3.21-1.72s-1.96-1.45-2.82-2.31c-.86-.88-1.64-1.81-2.31-2.83-.68-1.02-1.26-2.08-1.72-3.21s-.83-2.29-1.07-3.5c-.22-1.19-.35-2.4-.35-3.63"/></g></g></svg>